<svg id="Capa_1" data-name="Capa 1" xmlns="http://www.w3.org/2000/svg" width="34.08" height="29" viewBox="0 0 34.08 29"><defs><style>.cls-1{fill:#dd1e65;}</style></defs><title>ico-mod-credito</title>
    <path class="cls-1" d="M953.26,2011.12a10.57,10.57,0,0,1-7.4-18.12l.8.82a9.43,9.43,0,0,0,8.59,16l.24,1.12A11.1,11.1,0,0,1,953.26,2011.12Z" transform="translate(-942.69 -1985.41)" fill="#dd1e65"/>
    <path class="cls-1" d="M959.88,2014.41a.57.57,0,0,1-.39-.16.6.6,0,0,1-.18-.43l.17-5.22a.6.6,0,0,1,.17-.38l11.08-11.11a1.06,1.06,0,0,1,1.49,0l4.22,4.21a1.1,1.1,0,0,1,.33.77,1,1,0,0,1-.3.72l-11.08,11.11a.58.58,0,0,1-.37.17l-5.1.3Zm5.11-.87Zm-4.37-4.67-.14,4.36,4.25-.25,10.87-10.89-4.13-4.1Z" transform="translate(-942.69 -1985.41)" fill="#dd1e65"/>
    <path class="cls-1" d="M974.22,2004.85a.52.52,0,0,1-.4-.17l-4.93-4.91a.56.56,0,0,1,0-.81.58.58,0,0,1,.81,0l4.92,4.91a.57.57,0,0,1,0,.81A.56.56,0,0,1,974.22,2004.85Z" transform="translate(-942.69 -1985.41)" fill="#dd1e65"/>
    <path class="cls-1" d="M957.76,2011.12a12.86,12.86,0,1,1,12.54-15.7.56.56,0,0,1-.43.68.57.57,0,0,1-.69-.43,11.71,11.71,0,1,0-11.42,14.3h.41a.57.57,0,1,1,0,1.14Z" transform="translate(-942.69 -1985.41)" fill="#dd1e65"/>
    <path class="cls-1" d="M961.51,2000.57a3.28,3.28,0,0,0-1.27-2.65,11.35,11.35,0,0,0-2.09-1.05c-1.11-.46-2.27-1-2.28-2a1.71,1.71,0,0,1,1.88-1.89,2.35,2.35,0,0,1,2,1.36.94.94,0,1,0,1.68-.84,4.38,4.38,0,0,0-2.62-2.27v-.68a1,1,0,0,0-.95-.94h0a1,1,0,0,0-1,.94v.64a3.73,3.73,0,0,0-2.89,3.68,3.23,3.23,0,0,0,1.28,2.63,10.92,10.92,0,0,0,2.07,1c1.12.47,2.27,1,2.28,2a1.7,1.7,0,0,1-1.88,1.89,2.38,2.38,0,0,1-2-1.37,1,1,0,0,0-1.29-.5,1,1,0,0,0-.38,1.34,4.3,4.3,0,0,0,2.79,2.32v.52a1,1,0,0,0,1.9,0v-.56A3.75,3.75,0,0,0,961.51,2000.57Z" transform="translate(-942.69 -1985.41)" fill="#dd1e65"/>
</svg>