<svg id="Capa_1" data-name="Capa 1" xmlns="http://www.w3.org/2000/svg" width="29" height="25.84" viewBox="0 0 29 25.84"><defs><style>.cls-1,.cls-2{fill:#28348a;}.cls-2{stroke:#1d1d1b;stroke-miterlimit:10;stroke-width:2px;}</style></defs><title>ico-config-blue</title><path class="cls-1" d="M954.58,548.64h-3.27v-1.88a10.56,10.56,0,0,1-1.32-.59l-1.35,1.34-2.32-2.34,1.32-1.33a8.28,8.28,0,0,1-.53-1.34l-1.9,0v-3.29h1.88a11.17,11.17,0,0,1,.57-1.32l-1.32-1.36,2.32-2.34L950,535.5a8.32,8.32,0,0,1,1.32-.54l0-1.91h3.28v1.89a8.8,8.8,0,0,1,1.32.59l1.35-1.35,2.32,2.34-1.32,1.33a8,8,0,0,1,.53,1.35h1.88v3.29h-1.87a8.78,8.78,0,0,1-.58,1.32l1.33,1.37-2.33,2.34-1.32-1.34a7.9,7.9,0,0,1-1.33.54Zm-2.2-1.07h1.13v-.8a1.08,1.08,0,0,1,.78-1.07,5.44,5.44,0,0,0,1.09-.45,1.09,1.09,0,0,1,1.3.19l.56.57.82-.82-.57-.58a1.11,1.11,0,0,1-.19-1.3,5.21,5.21,0,0,0,.45-1.09,1.09,1.09,0,0,1,1.09-.79h.79v-1.15h-.78a1.08,1.08,0,0,1-1.07-.79,4.92,4.92,0,0,0-.45-1.09,1.11,1.11,0,0,1,.19-1.3l.57-.58-.81-.82-.57.57a1.09,1.09,0,0,1-1.3.19,5.36,5.36,0,0,0-1.08-.45,1.1,1.1,0,0,1-.79-1.09v-.8h-1.15v.8a1.08,1.08,0,0,1-.78,1.07,5.13,5.13,0,0,0-1.08.45,1.09,1.09,0,0,1-1.3-.18l-.57-.58-.82.83.58.57a1.11,1.11,0,0,1,.18,1.3,5.7,5.7,0,0,0-.45,1.09,1.08,1.08,0,0,1-1.09.79h-.78v1.15h.79a1.07,1.07,0,0,1,1.07.79,5.21,5.21,0,0,0,.45,1.09,1.11,1.11,0,0,1-.19,1.3l-.57.58.81.82.57-.57a1.11,1.11,0,0,1,1.3-.19,4.84,4.84,0,0,0,1.08.45,1.1,1.1,0,0,1,.79,1.1Z" transform="translate(-945.21 -526.84)"/><path class="cls-2" d="M970.3,541.38" transform="translate(-945.21 -526.84)"/><path class="cls-1" d="M973.68,533.3a.55.55,0,0,1-.38-.15l-5.57-5.39a.54.54,0,0,1,.75-.77l5.57,5.39a.55.55,0,0,1,0,.76A.59.59,0,0,1,973.68,533.3Z" transform="translate(-945.21 -526.84)"/><path class="cls-1" d="M953,543.36a2.52,2.52,0,1,1,2.5-2.51A2.51,2.51,0,0,1,953,543.36Zm0-4a1.45,1.45,0,1,0,1.44,1.45A1.44,1.44,0,0,0,953,539.4Z" transform="translate(-945.21 -526.84)"/><path class="cls-1" d="M972.7,552.68H954a1.5,1.5,0,0,1-1.5-1.51v-1.06a.54.54,0,0,1,1.07,0v1.06a.44.44,0,0,0,.43.45H972.7a.45.45,0,0,0,.44-.45V533.68h-4.07a1.52,1.52,0,0,1-1.5-1.52v-4.25H954a.44.44,0,0,0-.43.45v2.41a.54.54,0,0,1-1.07,0v-2.41a1.51,1.51,0,0,1,1.5-1.52H968.1a.54.54,0,0,1,.54.54v4.78a.44.44,0,0,0,.43.45h4.61a.53.53,0,0,1,.53.53v18A1.51,1.51,0,0,1,972.7,552.68Z" transform="translate(-945.21 -526.84)"/><path class="cls-1" d="M971,536.2H960.73a.54.54,0,1,1,0-1.07H971a.54.54,0,0,1,0,1.07Z" transform="translate(-945.21 -526.84)"/><path class="cls-1" d="M971,540.1h-8.64a.54.54,0,1,1,0-1.07H971a.54.54,0,0,1,0,1.07Z" transform="translate(-945.21 -526.84)"/><path class="cls-1" d="M971,544h-8.64a.54.54,0,1,1,0-1.07H971a.54.54,0,0,1,0,1.07Z" transform="translate(-945.21 -526.84)"/><path class="cls-1" d="M971,547.9H960.19a.54.54,0,0,1,0-1.07H971a.54.54,0,0,1,0,1.07Z" transform="translate(-945.21 -526.84)"/></svg>