<svg id="Capa_1" data-name="Capa 1" xmlns="http://www.w3.org/2000/svg" width="11.24mm" height="14.82mm" viewBox="0 0 31.87 42"><defs><style>.cls-1{fill:none;}.cls-2{fill:#97e8b1;}.cls-3{fill:#001c7e;}</style></defs><title>ico-edu-financiera</title><path class="cls-1" d="M392.77,290.09l.08.05,1.45-.48A3.36,3.36,0,0,0,392.77,290.09Z" transform="translate(-379.57 -284.61)"/><path class="cls-1" d="M388.86,301V297.7l-3-1.12v3.24C385.85,300.14,386.89,300.65,388.86,301Z" transform="translate(-379.57 -284.61)"/><path class="cls-1" d="M391.45,289.41c.55-.9,2.11-1.23,3.33-1.23,1.7,0,3.53.6,3.53,1.92h0l4.6,1.41,4.06-1.36-12.18-4.06-12.18,4.06.15,0Z" transform="translate(-379.57 -284.61)"/><path class="cls-1" d="M382.67,296.45a1,1,0,1,0,1,1A1,1,0,0,0,382.67,296.45Z" transform="translate(-379.57 -284.61)"/><polygon class="cls-1" points="4.83 7.69 3.82 7.35 3.82 8.65 4.83 8.32 4.83 7.69"/><path class="cls-1" d="M388.86,308.64v-6.16l-.87-.16a9.16,9.16,0,0,1-1.47-.42,10.93,10.93,0,0,0,1.14,15.51,12.32,12.32,0,0,1-.35-2.87A11.88,11.88,0,0,1,388.86,308.64Z" transform="translate(-379.57 -284.61)"/><polygon class="cls-1" points="6.61 6.75 8.1 7.24 10.74 6.37 6.61 6.75"/><path class="cls-2" d="M388.86,301a32.25,32.25,0,0,0,5.92.48c5.78,0,8.93-1.11,8.93-1.68v-7l-8.7,2.9a.72.72,0,0,1-.46,0l-8.7-2.9v3.8l3,1.12Z" transform="translate(-379.57 -284.61)"/><path class="cls-2" d="M394.78,320.05a10.93,10.93,0,0,0,8.27-18.11,21.27,21.27,0,0,1-5.12.92,4.14,4.14,0,0,1,1.05,2.76.72.72,0,0,1-.72.73.73.73,0,0,1-.73-.73,2.73,2.73,0,0,0-2-2.64v5.46a4.2,4.2,0,0,1,0,8.27v1.09a.73.73,0,0,1-1.46,0v-1.09a4.2,4.2,0,0,1-3.47-4.13.73.73,0,0,1,.72-.73.73.73,0,0,1,.73.73,2.76,2.76,0,0,0,2,2.64v-5.46a4.15,4.15,0,0,1-2.48-1.45,4.21,4.21,0,0,1,.06-5.45c-.93-.08-1.85-.21-2.77-.38v6.16a11.88,11.88,0,0,0-1.55,5.9,12.32,12.32,0,0,0,.35,2.87,10.92,10.92,0,0,0,7.12,2.64Z" transform="translate(-379.57 -284.61)"/><path class="cls-2" d="M392.57,307.26a2.72,2.72,0,0,0,1.48,1V303a2.75,2.75,0,0,0-2,2.25A2.7,2.7,0,0,0,392.57,307.26Z" transform="translate(-379.57 -284.61)"/><path class="cls-2" d="M397.49,313a2.74,2.74,0,0,0-2-3.05v5.29A2.72,2.72,0,0,0,397.49,313Z" transform="translate(-379.57 -284.61)"/><path class="cls-2" d="M408.3,306.44V300h.56l.74-6.38-4.3-1.32-.14.05v7.54a1.93,1.93,0,0,1-.78,1.43,12.4,12.4,0,0,1-8.71,20.24c-.3,0-.6,0-.91,0a12.31,12.31,0,0,1-6.2-1.67,12.06,12.06,0,1,0,19.74-13.43Z" transform="translate(-379.57 -284.61)"/><path class="cls-2" d="M384.4,295.74v-2.81l-1,.33v1.86A2.48,2.48,0,0,1,384.4,295.74Z" transform="translate(-379.57 -284.61)"/><polygon class="cls-2" points="0.43 9.78 2.37 10.51 2.37 9.13 0.43 9.78"/><path class="cls-2" d="M394.78,292c-1.15,0-2.65-.3-3.25-1.14l-1.22.11-2.64.87,7.11,2.37,8.12-2.7-4.6-1.41C398.29,291.41,396.47,292,394.78,292Z" transform="translate(-379.57 -284.61)"/><path class="cls-2" d="M396.79,290.09a3.68,3.68,0,0,0-2-.46c-.18,0-.32,0-.48,0l-1.45.48a3.75,3.75,0,0,0,1.93.42A3.56,3.56,0,0,0,396.79,290.09Z" transform="translate(-379.57 -284.61)"/><path class="cls-3" d="M395.67,321.51a12.4,12.4,0,0,0,8.71-20.24,1.93,1.93,0,0,0,.78-1.43V292.3l.14-.05,4.19-1.4a.71.71,0,0,0,0-1.35L395,284.65a.72.72,0,0,0-.46,0l-14.48,4.85a.73.73,0,0,0-.5.68.72.72,0,0,0,.5.69l1.87.63v3.64a2.38,2.38,0,0,0-1.3,1,2.42,2.42,0,0,0,2.5,3.7,2.39,2.39,0,0,0,1.26-.7v.75a1.93,1.93,0,0,0,.78,1.41,12.41,12.41,0,0,0,1.48,17.25,13.11,13.11,0,0,0,1.9,1.35,12.31,12.31,0,0,0,6.2,1.67C395.07,321.54,395.37,321.53,395.67,321.51Zm-.89-35.41L407,290.16l-4.06,1.36-8.12,2.7-7.11-2.37-1.48-.49,4.12-.38,1.22-.11c.6.84,2.1,1.14,3.25,1.14,1.69,0,3.51-.6,3.52-1.9h0c0-1.32-1.83-1.92-3.53-1.92-1.22,0-2.78.33-3.33,1.23l-8.7.8-.15,0Zm-2,4a3.36,3.36,0,0,1,1.53-.43c.16,0,.3,0,.48,0a3.68,3.68,0,0,1,2,.46,3.56,3.56,0,0,1-2,.47,3.75,3.75,0,0,1-1.93-.42ZM383.4,292l1,.34v3.44a2.48,2.48,0,0,0-1-.62V292Zm2.45.82,8.7,2.9a.72.72,0,0,0,.46,0l8.7-2.9v7c0,.57-3.15,1.68-8.93,1.68a32.25,32.25,0,0,1-5.92-.48c-2-.37-3-.88-3-1.2v-7Zm9.66,17.15a2.75,2.75,0,0,1,0,5.29Zm-1.46-7v5.3a2.74,2.74,0,0,1-2-3A2.75,2.75,0,0,1,394.05,303Zm-11.38-4.59a1,1,0,1,1,1-1A1,1,0,0,1,382.67,298.38Zm1.15,10.71a10.93,10.93,0,0,1,2.7-7.19,9.16,9.16,0,0,0,1.47.42l.87.16c.92.17,1.84.3,2.77.38a4.21,4.21,0,0,0-.06,5.45,4.15,4.15,0,0,0,2.48,1.45v5.46a2.76,2.76,0,0,1-2-2.64.73.73,0,0,0-.73-.73.73.73,0,0,0-.72.73,4.2,4.2,0,0,0,3.47,4.13v1.09a.73.73,0,0,0,1.46,0v-1.09a4.2,4.2,0,0,0,0-8.27V303a2.73,2.73,0,0,1,2,2.64.73.73,0,0,0,.73.73.72.72,0,0,0,.72-.73,4.14,4.14,0,0,0-1.05-2.76,21.27,21.27,0,0,0,5.12-.92,10.93,10.93,0,0,1-8.27,18.11h0a11,11,0,0,1-11-11Z" transform="translate(-379.57 -284.61)"/></svg>