<svg id="Capa_1" data-name="Capa 1" xmlns="http://www.w3.org/2000/svg" fill="red" width="42" height="17.48" viewBox="0 0 42 17.48">
    <defs>
        <style>.cls-1{fill:#dd1e65;}</style>
    </defs><title>ico-pagos</title>
    <path class="cls-1" d="M325.35,387.26h-24.9a1.65,1.65,0,0,0-1.65,1.65v2.32a23.77,23.77,0,0,0-2.68,0,49.53,49.53,0,0,0-5,1.27H289.2v-.06a1.22,1.22,0,0,0-1.22-1.22h-1.76a1.22,1.22,0,0,0-1.22,1.22v9.44a1.22,1.22,0,0,0,1.22,1.22H288a1.22,1.22,0,0,0,1.2-1l1.83.14a19.27,19.27,0,0,0,2.29.88,8.93,8.93,0,0,0,1.84.15,10.86,10.86,0,0,0,2-.15,10.19,10.19,0,0,0,1.68-.56v.55a1.65,1.65,0,0,0,1.65,1.65h24.9a1.65,1.65,0,0,0,1.65-1.65V388.91A1.65,1.65,0,0,0,325.35,387.26Zm-37.5,14.51h-1.51v-9.18h1.51Zm9,0a11.2,11.2,0,0,1-3.27,0,19.54,19.54,0,0,1-2.13-.84l-.11-.05-2.15-.16v-6.87h2l.19,0s3.7-1.1,4.91-1.26c.41-.05,1.44,0,2.19,0l-.1,5.25h.68c1.68,0,4.66.17,5.49.6a7.53,7.53,0,0,1,1.73,1.75H300.8l-.14.06A26.4,26.4,0,0,1,296.86,401.78Zm28.8,1.31a.31.31,0,0,1-.31.31h-24.9a.31.31,0,0,1-.31-.31V402l1-.45H307a.86.86,0,0,0,.87-.64c.26-1.1-2.11-3.33-2.74-3.65a15.8,15.8,0,0,0-5-.72v-7.59a.31.31,0,0,1,.31-.31h24.9a.31.31,0,0,1,.31.31Z" transform="translate(-285 -387.26)" fill="#dd1e65"/>
    <path class="cls-1" d="M312.21,392.65a1.45,1.45,0,0,1,1.23.85.59.59,0,1,0,1-.53,2.67,2.67,0,0,0-1.63-1.4v-.43a.59.59,0,0,0-.58-.59h0a.59.59,0,0,0-.59.59v.4a2.33,2.33,0,0,0-1.81,2.29,2,2,0,0,0,.8,1.64,6.78,6.78,0,0,0,1.29.65c.7.29,1.41.6,1.42,1.24a1.06,1.06,0,0,1-1.17,1.18,1.48,1.48,0,0,1-1.23-.85.6.6,0,0,0-.8-.32.62.62,0,0,0-.24.84,2.7,2.7,0,0,0,1.74,1.45V400a.59.59,0,1,0,1.17,0v-.35a2.33,2.33,0,0,0,1.7-2.27,2,2,0,0,0-.79-1.64,6.93,6.93,0,0,0-1.3-.66c-.69-.29-1.41-.6-1.42-1.23A1.06,1.06,0,0,1,312.21,392.65Z" transform="translate(-285 -387.26)" fill="#dd1e65"/>
    <polygon class="cls-1" points="16.29 5.38 17.64 5.38 17.64 4.03 18.98 4.03 18.98 2.69 16.29 2.69 16.29 5.38" fill="#dd1e65"/>
    <polygon class="cls-1" points="36.46 4.03 37.81 4.03 37.81 5.38 39.15 5.38 39.15 2.69 36.46 2.69 36.46 4.03" fill="#dd1e65"/>
    <polygon class="cls-1" points="37.81 13.45 36.46 13.45 36.46 14.79 39.15 14.79 39.15 12.1 37.81 12.1 37.81 13.45" fill="#dd1e65"/>
</svg>