<svg width="26" height="29" viewBox="0 0 26 29" fill="none" xmlns="http://www.w3.org/2000/svg">
    <path d="M20.0259 28.9791C20.7301 28.9791 21.3031 28.4068 21.3031 27.7035V24.8623H24.1477C24.8518 24.8623 25.4248 24.29 25.4248 23.5867V6.1926C25.4248 6.17958 25.4182 6.16801 25.4173 6.15509C25.4139 6.10247 25.4039 6.05185 25.3868 6.00197C25.3803 5.98268 25.3752 5.96398 25.3667 5.94549C25.3377 5.88225 25.3011 5.82217 25.2499 5.77108L20.0093 0.537028C19.9577 0.485503 19.8971 0.448715 19.8334 0.419604C19.8161 0.411744 19.7987 0.407014 19.7808 0.400828C19.7289 0.382779 19.6762 0.372372 19.6214 0.36917C19.6097 0.368479 19.5991 0.362366 19.5873 0.362366H5.82398C5.11954 0.362366 4.54654 0.934677 4.54654 1.63799V4.47916H1.70195C0.997802 4.47916 0.424805 5.05147 0.424805 5.75478V27.7035C0.424805 28.4068 0.997802 28.9791 1.70195 28.9791H20.0259ZM20.1842 2.39777L23.3869 5.59642H20.2678C20.2218 5.59642 20.1842 5.55916 20.1842 5.51317V2.39777ZM5.74033 1.63799C5.74033 1.59199 5.77793 1.55473 5.82398 1.55473H18.9904V5.51317C18.9904 6.21647 19.5634 6.78879 20.2678 6.78879H24.231V23.5867C24.231 23.6327 24.1937 23.67 24.1477 23.67H5.82398C5.77793 23.67 5.74033 23.6327 5.74033 23.5867V1.63799ZM1.6186 27.7035V5.75478C1.6186 5.70879 1.6559 5.67153 1.70195 5.67153H4.54654V23.5867C4.54654 24.29 5.11954 24.8623 5.82398 24.8623H20.1093V27.7035C20.1093 27.7495 20.072 27.7868 20.0259 27.7868H1.70195C1.6559 27.7868 1.6186 27.7495 1.6186 27.7035Z" fill="#dd1e65"/>
    <path d="M8.13171 10.2203H21.8396C22.1693 10.2203 22.4365 9.95367 22.4365 9.62414C22.4365 9.29461 22.1693 9.02796 21.8396 9.02796H8.13171C7.80208 9.02796 7.53481 9.29461 7.53481 9.62414C7.53481 9.95367 7.80208 10.2203 8.13171 10.2203Z" fill="#dd1e65"/>
    <path d="M8.13171 14.0285H21.8396C22.1693 14.0285 22.4365 13.7619 22.4365 13.4324C22.4365 13.1028 22.1693 12.8362 21.8396 12.8362H8.13171C7.80208 12.8362 7.53481 13.1028 7.53481 13.4324C7.53481 13.7619 7.80208 14.0285 8.13171 14.0285Z" fill="#dd1e65"/>
    <path d="M8.13171 17.8368H21.8396C22.1693 17.8368 22.4365 17.5701 22.4365 17.2406C22.4365 16.9111 22.1693 16.6444 21.8396 16.6444H8.13171C7.80208 16.6444 7.53481 16.9111 7.53481 17.2406C7.53481 17.5701 7.80208 17.8368 8.13171 17.8368Z" fill="#dd1e65"/>
    <path d="M8.13171 21.645H21.8396C22.1693 21.645 22.4365 21.3784 22.4365 21.0488C22.4365 20.7193 22.1693 20.4526 21.8396 20.4526H8.13171C7.80208 20.4526 7.53481 20.7193 7.53481 21.0488C7.53481 21.3784 7.80208 21.645 8.13171 21.645Z" fill="#dd1e65"/>
</svg>
