<svg id="Capa_1" data-name="Capa 1" xmlns="http://www.w3.org/2000/svg" width="23.67" height="23.67" viewBox="0 0 23.67 23.67"><defs><style>.cls-1{fill:#a80521;}</style></defs><title>ico-sad</title><path class="cls-1" d="M960.42,552.13a11.84,11.84,0,1,1,11.84-11.84A11.85,11.85,0,0,1,960.42,552.13Zm0-22.79a10.95,10.95,0,1,0,11,10.95A11,11,0,0,0,960.42,529.34Z" transform="translate(-948.58 -528.45)"/><path class="cls-1" d="M965.16,546.78a.41.41,0,0,1-.26-.09,7.55,7.55,0,0,0-8.95,0,.44.44,0,1,1-.53-.71,8.44,8.44,0,0,1,10,0,.44.44,0,0,1,.09.62A.42.42,0,0,1,965.16,546.78Z" transform="translate(-948.58 -528.45)"/><circle class="cls-1" cx="7.9" cy="9.19" r="1.51"/><circle class="cls-1" cx="15.77" cy="9.19" r="1.51"/></svg>