<svg id="Capa_1" data-name="Capa 1" xmlns="http://www.w3.org/2000/svg" width="30.65" height="29" viewBox="0 0 30.65 29"><defs><style>.cls-1{fill:#28348a;}</style></defs><title>ico-ayuda-covid-blue</title><path class="cls-1" d="M970.34,553.92a.7.7,0,0,1-.66-.47l-1.38-4.15-3.37-2-.09-.17a25.06,25.06,0,0,0-1.42-2.37,4.1,4.1,0,0,0-1.11-.91c-.59-.39-1-.69-1.06-1.25a.91.91,0,0,1,.39-.75,3.69,3.69,0,0,1,3.6-.73,18.54,18.54,0,0,1,2.88,2l2.39-2.16a86.1,86.1,0,0,1,1.8-8.71,2.64,2.64,0,0,1,2.91-1.22l.57.1.13,9.81-1.43,6.57,1.13,2.72a.69.69,0,1,1-1.28.54L973,547.56l1.5-6.85-.12-8.4a1,1,0,0,0-.83.42c-.33.74-1.24,5.68-1.74,8.62l0,.24-3.63,3.28-.46-.37a21.82,21.82,0,0,0-3-2.13,2,2,0,0,0-1.71.22l.07,0a5.14,5.14,0,0,1,1.5,1.31c.74,1.11,1.22,2,1.41,2.33l3.47,2.1L971,553a.69.69,0,0,1-.44.88A.78.78,0,0,1,970.34,553.92Z" transform="translate(-945.27 -524.92)"/><path class="cls-1" d="M960.59,540.22a7.65,7.65,0,1,1,7.65-7.65A7.65,7.65,0,0,1,960.59,540.22Zm0-13.9a6.26,6.26,0,1,0,6.26,6.25A6.26,6.26,0,0,0,960.59,526.32Z" transform="translate(-945.27 -524.92)"/><path class="cls-1" d="M962.72,534.09a1.86,1.86,0,0,0-.72-1.5,6.82,6.82,0,0,0-1.18-.59c-.63-.27-1.28-.55-1.29-1.12a1,1,0,0,1,1.06-1.08,1.37,1.37,0,0,1,1.13.77.53.53,0,1,0,.94-.47,2.47,2.47,0,0,0-1.48-1.28v-.39a.54.54,0,0,0-.54-.53h0a.53.53,0,0,0-.53.53v.36a2.12,2.12,0,0,0-1.64,2.09,1.85,1.85,0,0,0,.73,1.49,6.42,6.42,0,0,0,1.17.59c.63.26,1.28.55,1.29,1.13a1,1,0,0,1-1.07,1.07,1.34,1.34,0,0,1-1.12-.78.55.55,0,0,0-.73-.28.56.56,0,0,0-.21.76,2.4,2.4,0,0,0,1.58,1.31v.3a.54.54,0,0,0,1.07,0v-.32A2.13,2.13,0,0,0,962.72,534.09Z" transform="translate(-945.27 -524.92)"/><path class="cls-1" d="M950.84,553.92l-.22,0a.7.7,0,0,1-.44-.88l1.55-4.64,3.46-2.1c.2-.36.68-1.22,1.42-2.33a5,5,0,0,1,1.5-1.31l.06,0a2,2,0,0,0-1.7-.22,21.44,21.44,0,0,0-3,2.13l-.47.37-3.63-3.28,0-.24c-.49-2.94-1.41-7.88-1.74-8.62a1,1,0,0,0-.83-.42l-.11,8.4,1.5,6.85-1.31,3.13a.69.69,0,1,1-1.28-.54l1.13-2.72-1.43-6.57.13-9.81.57-.1a2.64,2.64,0,0,1,2.91,1.22,88.94,88.94,0,0,1,1.8,8.71l2.39,2.16a18.54,18.54,0,0,1,2.88-2,3.67,3.67,0,0,1,3.59.73.9.9,0,0,1,.4.75c0,.56-.48.86-1.07,1.25a4,4,0,0,0-1.1.91,26.84,26.84,0,0,0-1.43,2.37l-.09.17-3.36,2-1.39,4.15A.68.68,0,0,1,950.84,553.92Z" transform="translate(-945.27 -524.92)"/></svg>