<?xml version="1.0" encoding="utf-8"?>
<!-- Generator: Adobe Illustrator 21.0.2, SVG Export Plug-In . SVG Version: 6.00 Build 0)  -->
<svg version="1.1" id="Layer_1" xmlns="http://www.w3.org/2000/svg" xmlns:xlink="http://www.w3.org/1999/xlink" x="0px" y="0px"
	 width="263px" height="51px" viewBox="0 0 263 51" style="enable-background:new 0 0 263 51;" xml:space="preserve">
<style type="text/css">
	.st0{fill-rule:evenodd;clip-rule:evenodd;fill:#13227B;}
	.st1{fill:#13227B;}
	.st2{fill-rule:evenodd;clip-rule:evenodd;fill:#FFFFFF;}
</style>
<g>
	<path class="st0" d="M206.6,36.2v-7h6.8c1.7-2.9,4.4-5.8,8.1-8.6c-1.5-2.1-2.8-4.2-3.6-6.5h-11.4v-8H217h0.1h0.1h0.1h0.1h0.1h0.1
		h0.1h0.1h0.1h0.1h0.1h0.1h0.1h0.1h0.1h0.1h0.1h0.1h0.1h0.1h0.1h0.1h0.1h0.1h0.1h0.1h0.1h0.1h0.1h0.1h0.1h0.1h0.1h0.1h0.1h0.1h0.1
		h0.1h0.1h0.1h0.1h0.1h0.1h0.1h0.1h0.1h0.1h0.1h0.1h0h2c-0.4,5.4,0.9,8,2.7,9.9c3.8-2.3,6.4-6.2,8.8-10c2.7,0,5.5,0,8.2,0
		c-3.3,5.8-7.1,11.3-12.6,14.7c0.1,0.1,0.2,0.3,0.3,0.4c4.2,7,3.6,15.7,0.9,25.3c-2.8,0-5.5,0-8.3,0c2.8-6.9,3.9-15.3-0.3-20.8
		c-3.8,3-6.9,6.3-8.9,10.6c-1.8,0-3.6,0-5.4,0l0-0.1H206.6L206.6,36.2z M206.6,25.1h1.2v-7.2h-1.2V25.1z M80.6,6.2h7.7v30.2h-7.7
		V6.2L80.6,6.2z M206.6,6.2v8h-14.2c-0.5,0.4-0.7,1-0.7,1.6v2.1h15v7.2h-15v2.1c0,1.1,0.9,2,1.9,2h13.1v7h-13.2
		c-5.1,0-9.3-5.2-9.3-11.6V14.1H171v22.1h-8V14.1h-32.7c-0.9,0-1.6,0.7-1.6,1.6v2.2h15.8v7.2h-15.8v3.5h0.2h21.1v7.7H99.9
		c-5.1,0-9.3-4.2-9.3-9.3V15.5c0-5.1,4.2-9.3,9.3-9.3h19.3v7.7h-18.6c-1.4,0-2.5,1.1-2.5,2.4v10c0,1.3,1.1,2.4,2.5,2.4h18.6h1.9
		c-0.1-0.5-0.1-0.9-0.1-1.4v-12c0-5,4.3-9.1,9.5-9.1H206.6z"/>
	<g>
		<path class="st1" d="M217.4,44.3v-0.7c0.1,0,0.3-0.1,0.4-0.2c0.2-0.2,0.4-0.5,0.6-0.9c0.2-0.4,0.2-0.8,0.2-1.3
			c0-0.5-0.1-0.8-0.3-1.1c-0.2-0.2-0.4-0.4-0.7-0.4c-0.1,0-0.2,0-0.3,0v-0.7c0.1,0,0.2,0,0.3,0c0.5,0,0.8,0.2,1.1,0.5
			c0.3,0.4,0.4,0.9,0.4,1.5c0,0.6-0.1,1.1-0.3,1.6c-0.2,0.5-0.5,0.8-0.8,1.1C218,44.1,217.7,44.2,217.4,44.3z M217.4,39.2v0.7
			c-0.1,0-0.3,0.1-0.4,0.2c-0.2,0.2-0.4,0.5-0.5,0.9c-0.1,0.4-0.2,0.8-0.2,1.3c0,0.5,0.1,0.8,0.3,1c0.2,0.2,0.4,0.4,0.7,0.4
			c0.1,0,0.2,0,0.2,0v0.7c-0.1,0-0.2,0-0.3,0c-0.5,0-0.8-0.2-1.1-0.5c-0.3-0.4-0.4-0.8-0.4-1.4c0-0.9,0.2-1.6,0.6-2.2
			C216.5,39.6,216.9,39.3,217.4,39.2L217.4,39.2z M209,44.2v-0.6c0.1,0,0.2-0.1,0.3-0.1c0.2-0.1,0.4-0.3,0.5-0.6
			c0.1-0.3,0.2-0.6,0.3-1.2c-0.2,0.1-0.4,0.1-0.8,0.2c-0.1,0-0.2,0-0.2,0v-0.6l0,0c0.4,0,0.6,0,0.8-0.1c0.1,0,0.3-0.1,0.4-0.1
			c0.1-0.2,0.1-0.4,0.1-0.6c0-0.2-0.1-0.4-0.2-0.5c-0.1-0.1-0.4-0.2-0.6-0.2c-0.1,0-0.3,0-0.4,0.1v-0.7c0.1,0,0.3,0,0.4,0
			c0.4,0,0.8,0.1,1.1,0.4c0.3,0.2,0.4,0.5,0.4,0.9c0,0.3,0,0.6-0.1,0.9l-0.2,1.2c-0.1,0.4-0.1,0.7-0.1,0.9c0,0.2,0,0.4,0.1,0.7h-0.7
			c0-0.2-0.1-0.4-0.1-0.6c-0.2,0.3-0.5,0.4-0.7,0.6C209.1,44.2,209,44.2,209,44.2L209,44.2z M211.3,44.2l0.8-4.9h0.6l-0.1,0.8
			c0.3-0.4,0.5-0.6,0.8-0.8c0.2-0.1,0.4-0.2,0.7-0.2c0.3,0,0.5,0.1,0.7,0.3c0.2,0.2,0.3,0.5,0.3,0.9c0,0.2,0,0.4-0.1,0.8l-0.5,3
			h-0.7l0.5-3.1c0.1-0.3,0.1-0.5,0.1-0.7c0-0.2,0-0.3-0.1-0.4c-0.1-0.1-0.2-0.1-0.4-0.1c-0.3,0-0.6,0.2-0.9,0.5
			c-0.3,0.3-0.5,0.8-0.6,1.6l-0.4,2.3H211.3z M209,39.3v0.7c-0.3,0.1-0.6,0.4-0.7,0.8l-0.7-0.1C207.9,39.9,208.3,39.4,209,39.3
			L209,39.3z M209,41.3v0.6c-0.3,0-0.5,0.1-0.6,0.1c-0.1,0.1-0.3,0.2-0.3,0.3c-0.1,0.1-0.1,0.3-0.1,0.5c0,0.2,0.1,0.4,0.2,0.6
			c0.1,0.1,0.3,0.2,0.5,0.2c0.1,0,0.2,0,0.3-0.1v0.6c-0.2,0.1-0.3,0.1-0.5,0.1c-0.3,0-0.6-0.1-0.9-0.4c-0.2-0.3-0.3-0.6-0.3-1
			c0-0.3,0.1-0.6,0.2-0.8c0.1-0.2,0.3-0.4,0.5-0.5C208.3,41.4,208.6,41.3,209,41.3L209,41.3z M203.4,44.3v-0.7
			c0.1,0,0.2-0.1,0.3-0.2c0.2-0.2,0.3-0.5,0.5-0.9c0.2-0.4,0.2-0.9,0.2-1.3c0-0.4-0.1-0.8-0.2-1c-0.2-0.2-0.4-0.3-0.6-0.3
			c-0.1,0-0.2,0-0.2,0v-0.6c0.1-0.1,0.3-0.1,0.4-0.1c0.4,0,0.7,0.2,0.9,0.5c0.2,0.3,0.4,0.8,0.4,1.5c0,0.6-0.1,1.2-0.3,1.7
			c-0.2,0.5-0.4,0.9-0.7,1.1C203.9,44.1,203.7,44.2,203.4,44.3L203.4,44.3z M206.5,38.4l0.2-0.9h0.7l-0.2,0.9H206.5L206.5,38.4z
			 M205.5,44.2l0.8-4.9h0.7l-0.8,4.9H205.5z M203.4,39.3v0.6c-0.1,0-0.3,0.1-0.4,0.3c-0.2,0.2-0.4,0.6-0.5,1.1
			c-0.1,0.4-0.1,0.7-0.1,0.9l0,0.2c0,0.4,0.1,0.7,0.2,0.9c0.2,0.2,0.4,0.3,0.6,0.3c0.1,0,0.1,0,0.2,0v0.7c-0.1,0-0.1,0-0.2,0
			c-0.5,0-0.9-0.3-1.1-1l-0.2,0.9h-0.6l1.1-6.7h0.7l-0.4,2.4C203,39.6,203.2,39.4,203.4,39.3C203.4,39.3,203.4,39.3,203.4,39.3
			L203.4,39.3z M193,44.3v-0.7c0.1,0,0.3-0.1,0.4-0.2c0.2-0.2,0.4-0.5,0.6-0.9c0.2-0.4,0.2-0.8,0.2-1.3c0-0.5-0.1-0.8-0.3-1.1
			c-0.2-0.2-0.4-0.4-0.7-0.4c-0.1,0-0.2,0-0.3,0v-0.7c0.1,0,0.2,0,0.3,0c0.5,0,0.8,0.2,1.1,0.5c0.3,0.4,0.4,0.9,0.4,1.5
			c0,0.6-0.1,1.1-0.3,1.6c-0.2,0.5-0.5,0.8-0.8,1.1C193.5,44.1,193.2,44.2,193,44.3L193,44.3z M195.2,44.2l0.8-4.9h0.7l-0.1,0.8
			c0.3-0.4,0.5-0.6,0.7-0.7c0.2-0.1,0.4-0.2,0.6-0.2c0.2,0,0.4,0.1,0.6,0.2c0.2,0.2,0.3,0.4,0.3,0.7c0.2-0.3,0.4-0.5,0.6-0.7
			c0.2-0.2,0.4-0.2,0.7-0.2c0.3,0,0.5,0.1,0.7,0.3c0.2,0.2,0.3,0.5,0.3,0.8c0,0.2,0,0.4-0.1,0.8l-0.5,3.1h-0.7l0.5-3.2
			c0-0.3,0.1-0.5,0.1-0.6c0-0.2,0-0.3-0.1-0.4c-0.1-0.1-0.2-0.1-0.3-0.1c-0.2,0-0.4,0.1-0.6,0.2c-0.2,0.1-0.4,0.3-0.5,0.6
			c-0.1,0.2-0.2,0.6-0.3,1.2l-0.4,2.4h-0.7l0.5-3.3c0-0.2,0.1-0.4,0.1-0.5c0-0.2,0-0.3-0.1-0.4c-0.1-0.1-0.2-0.1-0.3-0.1
			c-0.3,0-0.6,0.2-0.8,0.5c-0.3,0.3-0.5,0.8-0.6,1.5l-0.4,2.3H195.2z M193,39.2v0.7c-0.1,0-0.3,0.1-0.4,0.2
			c-0.2,0.2-0.4,0.5-0.5,0.9c-0.1,0.4-0.2,0.8-0.2,1.3c0,0.5,0.1,0.8,0.3,1c0.2,0.2,0.4,0.4,0.7,0.4c0.1,0,0.2,0,0.2,0v0.7
			c-0.1,0-0.2,0-0.3,0c-0.5,0-0.8-0.2-1.1-0.5c-0.3-0.4-0.4-0.8-0.4-1.4c0-0.9,0.2-1.6,0.6-2.2C192.1,39.6,192.5,39.3,193,39.2
			L193,39.2z M187.2,44.3v-0.7c0.1,0,0.3-0.1,0.4-0.2c0.2-0.2,0.4-0.5,0.6-0.9c0.2-0.4,0.2-0.8,0.2-1.3c0-0.5-0.1-0.8-0.3-1.1
			c-0.2-0.2-0.4-0.4-0.7-0.4c-0.1,0-0.2,0-0.3,0v-0.7c0.1,0,0.2,0,0.3,0c0.5,0,0.8,0.2,1.1,0.5c0.3,0.4,0.4,0.9,0.4,1.5
			c0,0.6-0.1,1.1-0.3,1.6c-0.2,0.5-0.5,0.8-0.8,1.1C187.7,44.1,187.4,44.2,187.2,44.3L187.2,44.3z M189.3,44.2l1.1-6.7h0.7l-1.1,6.7
			H189.3z M187.2,39.2v0.7c-0.1,0-0.3,0.1-0.4,0.2c-0.2,0.2-0.4,0.5-0.5,0.9c-0.1,0.4-0.2,0.8-0.2,1.3c0,0.5,0.1,0.8,0.3,1
			c0.2,0.2,0.4,0.4,0.7,0.4c0.1,0,0.2,0,0.2,0v0.7c-0.1,0-0.2,0-0.3,0c-0.5,0-0.8-0.2-1.1-0.5c-0.3-0.4-0.4-0.8-0.4-1.4
			c0-0.9,0.2-1.6,0.6-2.2C186.2,39.6,186.7,39.3,187.2,39.2L187.2,39.2z M173.5,44.3v-0.7c0.1,0,0.3-0.1,0.4-0.2
			c0.2-0.2,0.4-0.5,0.6-0.9c0.2-0.4,0.2-0.8,0.2-1.3c0-0.5-0.1-0.8-0.3-1.1c-0.2-0.2-0.4-0.4-0.7-0.4c-0.1,0-0.2,0-0.2,0v-0.7
			c0.1,0,0.2,0,0.3,0c0.5,0,0.8,0.2,1.1,0.5c0.3,0.4,0.4,0.9,0.4,1.5c0,0.6-0.1,1.1-0.3,1.6c-0.2,0.5-0.5,0.8-0.8,1.1
			C174,44.1,173.8,44.2,173.5,44.3L173.5,44.3z M175.7,42.5l0.7-0.1c0,0.4,0.1,0.7,0.3,0.9c0.2,0.2,0.4,0.3,0.7,0.3
			c0.3,0,0.5-0.1,0.6-0.2c0.2-0.1,0.2-0.3,0.2-0.5c0-0.2,0-0.3-0.1-0.4c-0.1-0.1-0.3-0.3-0.7-0.5c-0.4-0.2-0.6-0.4-0.8-0.5
			c-0.1-0.1-0.2-0.2-0.3-0.4c-0.1-0.2-0.1-0.3-0.1-0.5c0-0.4,0.1-0.7,0.4-1c0.3-0.3,0.6-0.4,1-0.4c0.5,0,0.8,0.1,1.1,0.4
			c0.3,0.3,0.4,0.6,0.4,1.1l-0.6,0.1c0-0.3-0.1-0.5-0.3-0.7c-0.2-0.2-0.4-0.2-0.7-0.2c-0.2,0-0.4,0.1-0.5,0.2
			c-0.1,0.1-0.2,0.3-0.2,0.4c0,0.1,0,0.3,0.1,0.4c0.1,0.1,0.3,0.2,0.6,0.4c0.5,0.3,0.8,0.5,1,0.7c0.2,0.3,0.3,0.6,0.3,0.9
			c0,0.4-0.1,0.8-0.4,1c-0.3,0.3-0.7,0.4-1.2,0.4c-0.5,0-0.9-0.1-1.2-0.4C175.9,43.6,175.7,43.2,175.7,42.5L175.7,42.5L175.7,42.5z
			 M184.2,42.4l0.7,0.1c-0.2,0.6-0.4,1.1-0.7,1.4c-0.3,0.3-0.7,0.4-1,0.4c-0.4,0-0.7-0.2-1-0.5c-0.3-0.3-0.4-0.8-0.4-1.5
			c0-0.6,0.1-1.2,0.3-1.7c0.2-0.5,0.4-0.9,0.7-1.1c0.3-0.2,0.6-0.3,1-0.3c0.4,0,0.7,0.1,1,0.4c0.3,0.3,0.4,0.7,0.4,1.2l-0.6,0.1
			c0-0.3-0.1-0.6-0.2-0.7c-0.1-0.2-0.3-0.3-0.5-0.3c-0.2,0-0.4,0.1-0.6,0.2c-0.2,0.2-0.3,0.5-0.5,0.9c-0.1,0.4-0.2,0.9-0.2,1.4
			c0,0.4,0.1,0.7,0.2,0.9c0.1,0.2,0.3,0.3,0.5,0.3c0.2,0,0.4-0.1,0.6-0.3C183.9,43.1,184.1,42.8,184.2,42.4z M173.5,39.2v0.7
			c-0.1,0-0.3,0.1-0.4,0.2c-0.2,0.2-0.4,0.5-0.5,0.9c-0.1,0.4-0.2,0.8-0.2,1.3c0,0.5,0.1,0.8,0.3,1c0.2,0.2,0.4,0.4,0.7,0.4
			c0.1,0,0.2,0,0.2,0v0.7c-0.1,0-0.2,0-0.3,0c-0.5,0-0.8-0.2-1.1-0.5c-0.3-0.4-0.4-0.8-0.4-1.4c0-0.9,0.2-1.6,0.6-2.2
			C172.6,39.6,173,39.3,173.5,39.2L173.5,39.2z M165.7,44.3v-0.7c0.1,0,0.2-0.1,0.3-0.2c0.2-0.2,0.4-0.5,0.5-0.8l0.6,0.1
			c-0.1,0.5-0.4,0.9-0.7,1.2C166.2,44.1,165.9,44.2,165.7,44.3L165.7,44.3z M165.7,42v-0.6h1.1v-0.2c0-0.4-0.1-0.8-0.2-1
			c-0.2-0.2-0.4-0.3-0.6-0.3c-0.1,0-0.1,0-0.2,0v-0.7c0.1,0,0.1,0,0.2,0c0.4,0,0.8,0.2,1.1,0.5c0.3,0.4,0.4,0.8,0.4,1.5
			c0,0.2,0,0.5,0,0.7H165.7L165.7,42z M169.8,44.2l1.1-6.7h0.7l-1.1,6.7H169.8z M165.7,39.2v0.7c-0.2,0-0.4,0.2-0.6,0.3
			c-0.2,0.2-0.4,0.6-0.5,1.1h1.1V42h-1.2c0,0.1,0,0.2,0,0.3c0,0.5,0.1,0.8,0.3,1c0.2,0.2,0.4,0.4,0.6,0.4c0.1,0,0.2,0,0.3-0.1v0.7
			c-0.1,0-0.2,0-0.3,0c-0.3,0-0.5-0.1-0.8-0.2c-0.2-0.2-0.4-0.4-0.6-0.7c-0.1-0.3-0.2-0.7-0.2-1.1c0-0.6,0.1-1.1,0.3-1.6
			c0.2-0.5,0.5-0.9,0.8-1.1C165.1,39.4,165.4,39.3,165.7,39.2L165.7,39.2z M161.4,44.2v-0.6c0.2-0.1,0.4-0.3,0.6-0.5
			c0.3-0.5,0.5-1.2,0.5-1.9c0-0.4-0.1-0.7-0.2-0.9c-0.2-0.2-0.4-0.3-0.6-0.3c-0.1,0-0.1,0-0.2,0v-0.7c0.1,0,0.1,0,0.2,0
			c0.5,0,0.8,0.3,1.1,0.9l0.4-2.6h0.7l-1.1,6.7H162l0.1-0.7C161.9,43.8,161.6,44.1,161.4,44.2z M161.4,39.2v0.7
			c-0.1,0-0.3,0.1-0.4,0.3c-0.2,0.2-0.4,0.5-0.5,0.9c-0.1,0.4-0.2,0.8-0.2,1l0,0.2c0,0.4,0.1,0.7,0.3,1c0.1,0.2,0.3,0.3,0.6,0.3
			c0.1,0,0.2,0,0.2,0v0.6c-0.1,0.1-0.3,0.1-0.4,0.1c-0.4,0-0.7-0.2-0.9-0.5c-0.2-0.3-0.4-0.8-0.4-1.5c0-0.6,0.1-1.1,0.3-1.6
			c0.2-0.5,0.4-0.9,0.7-1.1C160.9,39.4,161.2,39.3,161.4,39.2L161.4,39.2z M155.3,44.3v-0.7c0.1,0,0.3-0.1,0.4-0.2
			c0.2-0.2,0.4-0.5,0.6-0.9c0.2-0.4,0.2-0.8,0.2-1.3c0-0.5-0.1-0.8-0.3-1.1c-0.2-0.2-0.4-0.4-0.7-0.4c-0.1,0-0.2,0-0.3,0v-0.7
			c0.1,0,0.2,0,0.3,0c0.5,0,0.8,0.2,1.1,0.5c0.3,0.4,0.4,0.9,0.4,1.5c0,0.6-0.1,1.1-0.3,1.6c-0.2,0.5-0.5,0.8-0.8,1.1
			C155.8,44.1,155.5,44.2,155.3,44.3z M155.3,39.2v0.7c-0.1,0-0.3,0.1-0.4,0.2c-0.2,0.2-0.4,0.5-0.5,0.9c-0.1,0.4-0.2,0.8-0.2,1.3
			c0,0.5,0.1,0.8,0.3,1c0.2,0.2,0.4,0.4,0.7,0.4c0.1,0,0.2,0,0.2,0v0.7c-0.1,0-0.2,0-0.3,0c-0.5,0-0.8-0.2-1.1-0.5
			c-0.3-0.4-0.4-0.8-0.4-1.4c0-0.9,0.2-1.6,0.6-2.2C154.3,39.6,154.7,39.3,155.3,39.2L155.3,39.2z M145,44.3v-0.7
			c0.1,0,0.2-0.1,0.3-0.2c0.2-0.2,0.4-0.5,0.5-0.8l0.6,0.1c-0.1,0.5-0.4,0.9-0.7,1.2C145.5,44.1,145.2,44.2,145,44.3L145,44.3z
			 M145,42v-0.6h1.1v-0.2c0-0.4-0.1-0.8-0.2-1c-0.2-0.2-0.4-0.3-0.6-0.3c-0.1,0-0.1,0-0.2,0v-0.7c0.1,0,0.1,0,0.2,0
			c0.4,0,0.8,0.2,1.1,0.5c0.3,0.4,0.4,0.8,0.4,1.5c0,0.2,0,0.5,0,0.7H145L145,42z M147.1,44.2l0.8-4.9h0.6l-0.1,0.8
			c0.3-0.4,0.5-0.6,0.8-0.8c0.2-0.1,0.4-0.2,0.7-0.2c0.3,0,0.5,0.1,0.7,0.3c0.2,0.2,0.3,0.5,0.3,0.9c0,0.2,0,0.4-0.1,0.8l-0.5,3
			h-0.7l0.5-3.1c0-0.3,0.1-0.5,0.1-0.7c0-0.2,0-0.3-0.1-0.4c-0.1-0.1-0.2-0.1-0.4-0.1c-0.3,0-0.6,0.2-0.9,0.5
			c-0.3,0.3-0.5,0.8-0.6,1.6l-0.4,2.3H147.1L147.1,44.2z M152.8,43.5l-0.1,0.7c-0.2,0.1-0.3,0.1-0.5,0.1c-0.2,0-0.4-0.1-0.6-0.2
			c-0.1-0.1-0.2-0.3-0.2-0.5c0-0.1,0-0.4,0.1-0.7L152,40h-0.5l0.1-0.6h0.5l0.2-1.2l0.8-0.6l-0.3,1.8h0.6l-0.1,0.6h-0.6l-0.4,2.7
			c-0.1,0.3-0.1,0.5-0.1,0.6c0,0.1,0,0.2,0.1,0.2c0,0,0.1,0.1,0.2,0.1C152.5,43.6,152.7,43.6,152.8,43.5z M145,39.2v0.7
			c-0.2,0-0.4,0.2-0.6,0.3c-0.2,0.2-0.4,0.6-0.5,1.1h1.1V42h-1.2c0,0.1,0,0.2,0,0.3c0,0.5,0.1,0.8,0.3,1c0.2,0.2,0.4,0.4,0.6,0.4
			c0.1,0,0.2,0,0.3-0.1v0.7c-0.1,0-0.2,0-0.3,0c-0.3,0-0.5-0.1-0.8-0.2c-0.2-0.2-0.4-0.4-0.6-0.7c-0.1-0.3-0.2-0.7-0.2-1.1
			c0-0.6,0.1-1.1,0.3-1.6c0.2-0.5,0.5-0.9,0.8-1.1C144.4,39.4,144.7,39.3,145,39.2L145,39.2z M138.9,44.2v-0.6
			c0.1,0,0.2-0.1,0.3-0.1c0.2-0.1,0.4-0.3,0.5-0.6c0.1-0.3,0.2-0.6,0.3-1.2c-0.2,0.1-0.4,0.1-0.8,0.2c-0.1,0-0.2,0-0.2,0v-0.6l0,0
			c0.4,0,0.6,0,0.8-0.1c0.1,0,0.3-0.1,0.4-0.1c0.1-0.2,0.1-0.4,0.1-0.6c0-0.2-0.1-0.4-0.2-0.5c-0.1-0.1-0.4-0.2-0.6-0.2
			c-0.1,0-0.3,0-0.4,0.1v-0.7c0.1,0,0.3,0,0.4,0c0.4,0,0.8,0.1,1.1,0.4c0.3,0.2,0.4,0.5,0.4,0.9c0,0.3,0,0.6-0.1,0.9l-0.2,1.2
			c-0.1,0.4-0.1,0.7-0.1,0.9c0,0.2,0,0.4,0.1,0.7h-0.7c0-0.2-0.1-0.4-0.1-0.6c-0.2,0.3-0.5,0.4-0.7,0.6
			C139,44.2,139,44.2,138.9,44.2L138.9,44.2z M141.2,44.2l1.1-6.7h0.7l-1.1,6.7H141.2z M138.9,39.3v0.7c-0.3,0.1-0.6,0.4-0.7,0.8
			l-0.7-0.1C137.8,39.9,138.3,39.4,138.9,39.3L138.9,39.3z M138.9,41.3v0.6c-0.3,0-0.5,0.1-0.6,0.1c-0.1,0.1-0.3,0.2-0.3,0.3
			c-0.1,0.1-0.1,0.3-0.1,0.5c0,0.2,0.1,0.4,0.2,0.6c0.1,0.1,0.3,0.2,0.5,0.2c0.1,0,0.2,0,0.3-0.1v0.6c-0.2,0.1-0.3,0.1-0.5,0.1
			c-0.3,0-0.6-0.1-0.9-0.4c-0.2-0.3-0.3-0.6-0.3-1c0-0.3,0.1-0.6,0.2-0.8c0.1-0.2,0.3-0.4,0.5-0.5C138.2,41.4,138.5,41.3,138.9,41.3
			L138.9,41.3z M129.2,44.3v-0.7c0.1,0,0.2-0.1,0.3-0.2c0.2-0.2,0.4-0.5,0.5-0.8l0.6,0.1c-0.1,0.5-0.4,0.9-0.7,1.2
			C129.7,44.1,129.5,44.2,129.2,44.3L129.2,44.3z M129.2,42v-0.6h1.1v-0.2c0-0.4-0.1-0.8-0.2-1c-0.2-0.2-0.4-0.3-0.6-0.3
			c-0.1,0-0.1,0-0.2,0v-0.7c0.1,0,0.1,0,0.2,0c0.4,0,0.8,0.2,1.1,0.5c0.3,0.4,0.4,0.8,0.4,1.5c0,0.2,0,0.5,0,0.7H129.2L129.2,42z
			 M131.3,44.2l1.1-6.7h0.7l-1.1,6.7H131.3L131.3,44.2z M136.6,43.5l-0.1,0.7c-0.2,0.1-0.3,0.1-0.5,0.1c-0.2,0-0.4-0.1-0.6-0.2
			c-0.1-0.1-0.2-0.3-0.2-0.5c0-0.1,0-0.4,0.1-0.7l0.5-2.8h-0.5l0.1-0.6h0.5l0.2-1.2l0.8-0.6l-0.3,1.8h0.6l-0.1,0.6h-0.6l-0.4,2.7
			c-0.1,0.3-0.1,0.5-0.1,0.6c0,0.1,0,0.2,0.1,0.2c0,0,0.1,0.1,0.2,0.1C136.4,43.6,136.5,43.6,136.6,43.5z M129.2,39.2v0.7
			c-0.2,0-0.4,0.2-0.6,0.3c-0.2,0.2-0.4,0.6-0.5,1.1h1.1V42H128c0,0.1,0,0.2,0,0.3c0,0.5,0.1,0.8,0.3,1c0.2,0.2,0.4,0.4,0.6,0.4
			c0.1,0,0.2,0,0.3-0.1v0.7c-0.1,0-0.2,0-0.3,0c-0.3,0-0.5-0.1-0.8-0.2c-0.2-0.2-0.4-0.4-0.6-0.7c-0.1-0.3-0.2-0.7-0.2-1.1
			c0-0.6,0.1-1.1,0.3-1.6c0.2-0.5,0.5-0.9,0.8-1.1C128.7,39.4,128.9,39.3,129.2,39.2L129.2,39.2z M118.8,44.3v-0.7
			c0.1,0,0.2-0.1,0.3-0.2c0.2-0.2,0.4-0.5,0.5-0.8l0.6,0.1c-0.1,0.5-0.4,0.9-0.7,1.2C119.3,44.1,119.1,44.2,118.8,44.3L118.8,44.3z
			 M118.8,42v-0.6h1.1v-0.2c0-0.4-0.1-0.8-0.2-1c-0.2-0.2-0.4-0.3-0.6-0.3c-0.1,0-0.1,0-0.2,0v-0.7c0.1,0,0.1,0,0.2,0
			c0.4,0,0.8,0.2,1.1,0.5c0.3,0.4,0.4,0.8,0.4,1.5c0,0.2,0,0.5,0,0.7H118.8L118.8,42z M121,44.2l0.8-4.9h0.6l-0.1,0.8
			c0.3-0.4,0.5-0.6,0.8-0.8c0.2-0.1,0.4-0.2,0.7-0.2c0.3,0,0.5,0.1,0.7,0.3c0.2,0.2,0.3,0.5,0.3,0.9c0,0.2,0,0.4-0.1,0.8l-0.5,3
			h-0.7l0.5-3.1c0-0.3,0.1-0.5,0.1-0.7c0-0.2,0-0.3-0.1-0.4c-0.1-0.1-0.2-0.1-0.4-0.1c-0.3,0-0.6,0.2-0.9,0.5
			c-0.3,0.3-0.5,0.8-0.6,1.6l-0.4,2.3H121z M118.8,39.2v0.7c-0.2,0-0.4,0.2-0.6,0.3c-0.2,0.2-0.4,0.6-0.5,1.1h1.1V42h-1.2
			c0,0.1,0,0.2,0,0.3c0,0.5,0.1,0.8,0.3,1c0.2,0.2,0.4,0.4,0.6,0.4c0.1,0,0.2,0,0.3-0.1v0.7c-0.1,0-0.2,0-0.3,0
			c-0.3,0-0.5-0.1-0.8-0.2c-0.2-0.2-0.4-0.4-0.6-0.7c-0.1-0.3-0.2-0.7-0.2-1.1c0-0.6,0.1-1.1,0.3-1.6c0.2-0.5,0.5-0.9,0.8-1.1
			C118.3,39.4,118.6,39.3,118.8,39.2L118.8,39.2z M108.8,44.3v-0.7c0.1,0,0.3-0.1,0.4-0.2c0.2-0.2,0.4-0.5,0.6-0.9
			c0.2-0.4,0.2-0.8,0.2-1.3c0-0.5-0.1-0.8-0.3-1.1c-0.2-0.2-0.4-0.4-0.7-0.4c-0.1,0-0.2,0-0.3,0v-0.7c0.1,0,0.2,0,0.3,0
			c0.5,0,0.8,0.2,1.1,0.5c0.3,0.4,0.4,0.9,0.4,1.5c0,0.6-0.1,1.1-0.3,1.6c-0.2,0.5-0.5,0.8-0.8,1.1
			C109.3,44.1,109.1,44.2,108.8,44.3L108.8,44.3z M111.1,42.5l0.7-0.1c0,0.4,0.1,0.7,0.3,0.9c0.2,0.2,0.4,0.3,0.7,0.3
			c0.3,0,0.5-0.1,0.6-0.2c0.2-0.1,0.2-0.3,0.2-0.5c0-0.2,0-0.3-0.1-0.4c-0.1-0.1-0.3-0.3-0.7-0.5c-0.4-0.2-0.6-0.4-0.8-0.5
			c-0.1-0.1-0.2-0.2-0.3-0.4c-0.1-0.2-0.1-0.3-0.1-0.5c0-0.4,0.1-0.7,0.4-1c0.3-0.3,0.6-0.4,1-0.4c0.5,0,0.8,0.1,1.1,0.4
			c0.3,0.3,0.4,0.6,0.4,1.1l-0.6,0.1c0-0.3-0.1-0.5-0.3-0.7c-0.2-0.2-0.4-0.2-0.7-0.2c-0.2,0-0.4,0.1-0.5,0.2
			c-0.1,0.1-0.2,0.3-0.2,0.4c0,0.1,0,0.3,0.1,0.4c0.1,0.1,0.3,0.2,0.6,0.4c0.5,0.3,0.8,0.5,1,0.7c0.2,0.3,0.3,0.6,0.3,0.9
			c0,0.4-0.1,0.8-0.4,1c-0.3,0.3-0.7,0.4-1.2,0.4c-0.5,0-0.9-0.1-1.2-0.4C111.2,43.6,111.1,43.2,111.1,42.5L111.1,42.5z M108.8,39.2
			v0.7c-0.1,0-0.3,0.1-0.4,0.2c-0.2,0.2-0.4,0.5-0.5,0.9c-0.1,0.4-0.2,0.8-0.2,1.3c0,0.5,0.1,0.8,0.3,1c0.2,0.2,0.4,0.4,0.7,0.4
			c0.1,0,0.2,0,0.2,0v0.7c-0.1,0-0.2,0-0.3,0c-0.5,0-0.8-0.2-1.1-0.5c-0.3-0.4-0.4-0.8-0.4-1.4c0-0.9,0.2-1.6,0.6-2.2
			C107.9,39.6,108.3,39.3,108.8,39.2L108.8,39.2z M99,44.2v-0.3l0.8-4.6h0.7l-0.8,4.9H99L99,44.2z M99,39.6l0-0.3h0V39.6L99,39.6z
			 M99.9,38.4l0.2-0.9h0.7l-0.2,0.9H99.9L99.9,38.4z M100.7,44.2l0.8-4.9h0.7l-0.1,0.8c0.3-0.4,0.5-0.6,0.7-0.7
			c0.2-0.1,0.4-0.2,0.6-0.2c0.2,0,0.4,0.1,0.6,0.2c0.2,0.2,0.3,0.4,0.3,0.7c0.2-0.3,0.4-0.5,0.6-0.7c0.2-0.2,0.4-0.2,0.7-0.2
			c0.3,0,0.5,0.1,0.7,0.3c0.2,0.2,0.3,0.5,0.3,0.8c0,0.2,0,0.4-0.1,0.8l-0.5,3.1h-0.7l0.5-3.2c0-0.3,0.1-0.5,0.1-0.6
			c0-0.2,0-0.3-0.1-0.4c-0.1-0.1-0.2-0.1-0.3-0.1c-0.2,0-0.4,0.1-0.6,0.2c-0.2,0.1-0.4,0.3-0.5,0.6c-0.1,0.2-0.2,0.6-0.3,1.2
			l-0.4,2.4h-0.7l0.5-3.3c0-0.2,0.1-0.4,0.1-0.5c0-0.2,0-0.3-0.1-0.4c-0.1-0.1-0.2-0.1-0.3-0.1c-0.3,0-0.6,0.2-0.8,0.5
			c-0.3,0.3-0.5,0.8-0.6,1.5l-0.4,2.3H100.7z M99,39.3v0.3L99,40h-0.6l-0.4,2.7c-0.1,0.3-0.1,0.5-0.1,0.6c0,0.1,0,0.2,0.1,0.2
			c0,0,0.1,0.1,0.2,0.1c0.1,0,0.3,0,0.4-0.1l-0.1,0.7c-0.2,0.1-0.3,0.1-0.5,0.1c-0.2,0-0.4-0.1-0.6-0.2c0,0-0.1-0.1-0.1-0.1v-1.3
			l0.4-2.7h-0.4v-0.2l0.1-0.3c0,0-0.1,0-0.1-0.1v0.2l0-0.2h0.5l0.2-1.2l0.8-0.6l-0.3,1.8H99L99,39.3z M99,43.9l0,0.3h0V43.9z
			 M97.2,39.3v0.2L97.1,40h0.1v-0.2l-0.2,0.4c-0.1-0.1-0.2-0.2-0.4-0.2c-0.2,0-0.5,0.2-0.7,0.5c-0.2,0.3-0.4,0.9-0.6,1.7l-0.3,2
			h-0.6l0.8-4.9h0.6l-0.2,1c0.4-0.7,0.8-1.1,1.2-1.1C96.9,39.2,97.1,39.2,97.2,39.3L97.2,39.3z M97.2,42.7l0,0.1
			c-0.1,0.4-0.1,0.6-0.1,0.7c0,0.2,0,0.3,0.1,0.4V42.7L97.2,42.7z M92.3,44.3v-0.7c0.1,0,0.2-0.1,0.3-0.2c0.2-0.2,0.4-0.5,0.5-0.8
			l0.6,0.1c-0.1,0.5-0.4,0.9-0.7,1.2C92.8,44.1,92.6,44.2,92.3,44.3L92.3,44.3z M92.3,42v-0.6h1.1v-0.2c0-0.4-0.1-0.8-0.2-1
			c-0.2-0.2-0.4-0.3-0.6-0.3c-0.1,0-0.1,0-0.2,0v-0.7c0.1,0,0.1,0,0.2,0c0.4,0,0.8,0.2,1.1,0.5c0.3,0.4,0.4,0.8,0.4,1.5
			c0,0.2,0,0.5,0,0.7H92.3z M92.3,39.2v0.7c-0.2,0-0.4,0.2-0.6,0.3c-0.2,0.2-0.4,0.6-0.5,1.1h1.1V42h-1.2c0,0.1,0,0.2,0,0.3
			c0,0.5,0.1,0.8,0.3,1c0.2,0.2,0.4,0.4,0.6,0.4c0.1,0,0.2,0,0.3-0.1v0.7c-0.1,0-0.2,0-0.3,0c-0.3,0-0.5-0.1-0.8-0.2
			c-0.2-0.2-0.4-0.4-0.6-0.7c-0.1-0.2-0.1-0.4-0.2-0.7v-0.9c0-0.4,0.1-0.8,0.3-1.1c0.2-0.5,0.5-0.9,0.8-1.1
			C91.8,39.4,92,39.3,92.3,39.2L92.3,39.2z M90.5,39.4L90.5,39.4L90.5,39.4L90.5,39.4z M80.5,44.2l1.1-6.7h0.7l-1.1,6.7H80.5
			L80.5,44.2z M90.5,39.3L90.5,39.3l-2.2,4.9h-0.7l-0.6-4.9h0.6l0.3,2.7c0,0.3,0.1,0.8,0.1,1.4c0.1-0.3,0.3-0.7,0.5-1.2l1.3-2.9
			H90.5L90.5,39.3z M90.5,41.8c0,0.2,0,0.3,0,0.5c0,0.1,0,0.3,0,0.4V41.8L90.5,41.8z M82.4,44.2l0.8-4.9h0.6l-0.1,0.8
			c0.3-0.4,0.5-0.6,0.8-0.8c0.2-0.1,0.4-0.2,0.7-0.2c0.3,0,0.5,0.1,0.7,0.3c0.2,0.2,0.3,0.5,0.3,0.9c0,0.2,0,0.4-0.1,0.8l-0.5,3
			h-0.7l0.5-3.1c0-0.3,0.1-0.5,0.1-0.7c0-0.2,0-0.3-0.1-0.4c-0.1-0.1-0.2-0.1-0.4-0.1c-0.3,0-0.6,0.2-0.9,0.5
			c-0.3,0.3-0.5,0.8-0.6,1.6l-0.4,2.3H82.4z"/>
		<path class="st1" d="M219.7,42.5l0.7-0.1c0,0.4,0.1,0.7,0.3,0.9c0.2,0.2,0.4,0.3,0.7,0.3c0.3,0,0.5-0.1,0.6-0.2
			c0.2-0.1,0.2-0.3,0.2-0.5c0-0.2,0-0.3-0.1-0.4c-0.1-0.1-0.3-0.3-0.7-0.5c-0.4-0.2-0.6-0.4-0.8-0.5c-0.1-0.1-0.2-0.2-0.3-0.4
			c-0.1-0.2-0.1-0.3-0.1-0.5c0-0.4,0.1-0.7,0.4-1c0.3-0.3,0.6-0.4,1-0.4c0.5,0,0.8,0.1,1.1,0.4c0.3,0.3,0.4,0.6,0.4,1.1l-0.6,0.1
			c0-0.3-0.1-0.5-0.3-0.7c-0.2-0.2-0.4-0.2-0.7-0.2c-0.2,0-0.4,0.1-0.5,0.2c-0.1,0.1-0.2,0.3-0.2,0.4c0,0.1,0,0.3,0.1,0.4
			c0.1,0.1,0.3,0.2,0.6,0.4c0.5,0.3,0.8,0.5,1,0.7c0.2,0.3,0.3,0.6,0.3,0.9c0,0.4-0.1,0.8-0.4,1c-0.3,0.3-0.7,0.4-1.2,0.4
			c-0.5,0-0.9-0.1-1.2-0.4C219.8,43.6,219.7,43.2,219.7,42.5L219.7,42.5z"/>
	</g>
	<path class="st0" d="M21.9,6.2h55.7v38.2H21.9c-4.1,0-7.5-3-7.5-6.8V12.9C14.4,9.2,17.8,6.2,21.9,6.2z"/>
	<g>
		<rect x="24.7" y="15.9" class="st2" width="1.2" height="1.2"/>
		<g>
			<rect x="24.7" y="17.3" class="st2" width="1.2" height="1.2"/>
			<rect x="23.4" y="17.3" class="st2" width="1.2" height="1.2"/>
			<rect x="22" y="17.3" class="st2" width="1.2" height="1.2"/>
		</g>
		<g>
			<rect x="23.4" y="18.6" class="st2" width="1.2" height="1.2"/>
			<rect x="22" y="18.6" class="st2" width="1.2" height="1.2"/>
		</g>
		<g>
			<rect x="23.7" y="19.9" class="st2" width="1.2" height="1.2"/>
			<rect x="22.3" y="19.9" class="st2" width="1.2" height="1.2"/>
			<rect x="21" y="19.9" class="st2" width="1.2" height="1.2"/>
		</g>
		<g>
			<rect x="23.7" y="21.3" class="st2" width="1.2" height="1.2"/>
			<rect x="22.3" y="21.3" class="st2" width="1.2" height="1.2"/>
			<rect x="21" y="21.3" class="st2" width="1.2" height="1.2"/>
		</g>
		<g>
			<rect x="20.9" y="22.6" class="st2" width="1.2" height="1.2"/>
			<rect x="19.5" y="22.6" class="st2" width="1.2" height="1.2"/>
		</g>
		<g>
			<rect x="20.9" y="23.9" class="st2" width="1.2" height="1.2"/>
			<rect x="19.5" y="23.9" class="st2" width="1.2" height="1.2"/>
		</g>
		<g>
			<rect x="22.3" y="25.3" class="st2" width="1.2" height="1.2"/>
			<rect x="20.9" y="25.3" class="st2" width="1.2" height="1.2"/>
			<rect x="19.5" y="25.3" class="st2" width="1.2" height="1.2"/>
		</g>
		<g>
			<rect x="22.2" y="26.6" class="st2" width="1.2" height="1.2"/>
			<rect x="20.9" y="26.6" class="st2" width="1.2" height="1.2"/>
		</g>
		<g>
			<rect x="22.2" y="27.9" class="st2" width="1.2" height="1.2"/>
			<rect x="20.9" y="27.9" class="st2" width="1.2" height="1.2"/>
		</g>
		<g>
			<rect x="23.6" y="29.3" class="st2" width="1.2" height="1.2"/>
			<rect x="22.2" y="29.3" class="st2" width="1.2" height="1.2"/>
			<rect x="20.9" y="29.3" class="st2" width="1.2" height="1.2"/>
		</g>
		<rect x="23.6" y="30.6" class="st2" width="1.2" height="1.2"/>
		<g>
			<rect x="26.2" y="32.9" class="st2" width="1.2" height="1.2"/>
			<rect x="24.8" y="32.9" class="st2" width="1.2" height="1.2"/>
			<rect x="23.4" y="32.9" class="st2" width="1.2" height="1.2"/>
		</g>
		<g>
			<rect x="28.8" y="34.4" class="st2" width="1.2" height="1.2"/>
			<rect x="27.4" y="34.4" class="st2" width="1.2" height="1.2"/>
			<rect x="26" y="34.4" class="st2" width="1.2" height="1.2"/>
		</g>
		<g>
			<rect x="28.8" y="35.8" class="st2" width="1.2" height="1.2"/>
			<rect x="27.4" y="35.8" class="st2" width="1.2" height="1.2"/>
		</g>
		<g>
			<rect x="33" y="14.5" class="st2" width="1.2" height="1.2"/>
			<rect x="31.6" y="14.5" class="st2" width="1.2" height="1.2"/>
			<rect x="30.2" y="14.5" class="st2" width="1.2" height="1.2"/>
			<rect x="35.7" y="14.5" class="st2" width="1.2" height="1.2"/>
			<rect x="34.4" y="14.5" class="st2" width="1.2" height="1.2"/>
			<rect x="39.9" y="14.5" class="st2" width="1.2" height="1.2"/>
			<rect x="38.5" y="14.5" class="st2" width="1.2" height="1.2"/>
			<rect x="37.1" y="14.5" class="st2" width="1.2" height="1.2"/>
			<rect x="42.7" y="14.5" class="st2" width="1.2" height="1.2"/>
			<rect x="41.3" y="14.5" class="st2" width="1.2" height="1.2"/>
			<rect x="46.8" y="14.5" class="st2" width="1.2" height="1.2"/>
			<rect x="45.4" y="14.5" class="st2" width="1.2" height="1.2"/>
			<rect x="44" y="14.5" class="st2" width="1.2" height="1.2"/>
			<rect x="49.6" y="14.5" class="st2" width="1.2" height="1.2"/>
			<rect x="48.2" y="14.5" class="st2" width="1.2" height="1.2"/>
		</g>
		<g>
			<rect x="40.9" y="15.8" class="st2" width="1.2" height="1.2"/>
			<rect x="39.6" y="15.8" class="st2" width="1.2" height="1.2"/>
			<rect x="38.2" y="15.8" class="st2" width="1.2" height="1.2"/>
			<rect x="43.7" y="15.8" class="st2" width="1.2" height="1.2"/>
			<rect x="42.3" y="15.8" class="st2" width="1.2" height="1.2"/>
			<rect x="47.8" y="15.8" class="st2" width="1.2" height="1.2"/>
			<rect x="46.4" y="15.8" class="st2" width="1.2" height="1.2"/>
			<rect x="45" y="15.8" class="st2" width="1.2" height="1.2"/>
			<rect x="50.5" y="15.8" class="st2" width="1.2" height="1.2"/>
			<rect x="49.1" y="15.8" class="st2" width="1.2" height="1.2"/>
		</g>
		<g>
			<rect x="40.9" y="17.2" class="st2" width="1.2" height="1.2"/>
			<rect x="39.6" y="17.2" class="st2" width="1.2" height="1.2"/>
			<rect x="38.2" y="17.2" class="st2" width="1.2" height="1.2"/>
			<rect x="43.7" y="17.2" class="st2" width="1.2" height="1.2"/>
			<rect x="42.3" y="17.2" class="st2" width="1.2" height="1.2"/>
			<rect x="47.8" y="17.2" class="st2" width="1.2" height="1.2"/>
			<rect x="46.4" y="17.2" class="st2" width="1.2" height="1.2"/>
			<rect x="45" y="17.2" class="st2" width="1.2" height="1.2"/>
			<rect x="50.5" y="17.2" class="st2" width="1.2" height="1.2"/>
			<rect x="49.1" y="17.2" class="st2" width="1.2" height="1.2"/>
		</g>
		<g>
			<rect x="42.1" y="18.6" class="st2" width="1.2" height="1.2"/>
			<rect x="40.7" y="18.6" class="st2" width="1.2" height="1.2"/>
			<rect x="39.3" y="18.6" class="st2" width="1.2" height="1.2"/>
			<rect x="44.8" y="18.6" class="st2" width="1.2" height="1.2"/>
			<rect x="43.4" y="18.6" class="st2" width="1.2" height="1.2"/>
			<rect x="47.6" y="18.6" class="st2" width="1.2" height="1.2"/>
			<rect x="46.2" y="18.6" class="st2" width="1.2" height="1.2"/>
		</g>
		<g>
			<rect x="39.4" y="19.9" class="st2" width="1.2" height="1.2"/>
			<rect x="38" y="19.9" class="st2" width="1.2" height="1.2"/>
			<rect x="36.6" y="19.9" class="st2" width="1.2" height="1.2"/>
			<rect x="42.1" y="19.9" class="st2" width="1.2" height="1.2"/>
			<rect x="40.8" y="19.9" class="st2" width="1.2" height="1.2"/>
			<rect x="46.2" y="19.9" class="st2" width="1.2" height="1.2"/>
			<rect x="44.9" y="19.9" class="st2" width="1.2" height="1.2"/>
			<rect x="43.5" y="19.9" class="st2" width="1.2" height="1.2"/>
		</g>
		<g>
			<rect x="39.6" y="21.3" class="st2" width="1.2" height="1.2"/>
			<rect x="38.2" y="21.3" class="st2" width="1.2" height="1.2"/>
			<rect x="42.4" y="21.3" class="st2" width="1.2" height="1.2"/>
			<rect x="41" y="21.3" class="st2" width="1.2" height="1.2"/>
			<rect x="46.5" y="21.3" class="st2" width="1.2" height="1.2"/>
			<rect x="45.1" y="21.3" class="st2" width="1.2" height="1.2"/>
			<rect x="43.7" y="21.3" class="st2" width="1.2" height="1.2"/>
		</g>
		<g>
			<rect x="41" y="22.6" class="st2" width="1.2" height="1.2"/>
			<rect x="39.7" y="22.6" class="st2" width="1.2" height="1.2"/>
			<rect x="43.8" y="22.6" class="st2" width="1.2" height="1.2"/>
			<rect x="42.4" y="22.6" class="st2" width="1.2" height="1.2"/>
			<rect x="45.2" y="22.6" class="st2" width="1.2" height="1.2"/>
		</g>
		<g>
			<rect x="41" y="24" class="st2" width="1.2" height="1.2"/>
			<rect x="39.7" y="24" class="st2" width="1.2" height="1.2"/>
			<rect x="43.8" y="24" class="st2" width="1.2" height="1.2"/>
			<rect x="42.4" y="24" class="st2" width="1.2" height="1.2"/>
			<rect x="47.9" y="24" class="st2" width="1.2" height="1.2"/>
			<rect x="46.5" y="24" class="st2" width="1.2" height="1.2"/>
			<rect x="45.2" y="24" class="st2" width="1.2" height="1.2"/>
		</g>
		<g>
			<rect x="46.1" y="25.4" class="st2" width="1.2" height="1.2"/>
			<rect x="44.7" y="25.4" class="st2" width="1.2" height="1.2"/>
			<rect x="48.9" y="25.4" class="st2" width="1.2" height="1.2"/>
			<rect x="47.5" y="25.4" class="st2" width="1.2" height="1.2"/>
			<rect x="50.2" y="25.4" class="st2" width="1.2" height="1.2"/>
		</g>
		<g>
			<rect x="46.1" y="26.7" class="st2" width="1.2" height="1.2"/>
			<rect x="44.7" y="26.7" class="st2" width="1.2" height="1.2"/>
			<rect x="48.9" y="26.7" class="st2" width="1.2" height="1.2"/>
			<rect x="47.5" y="26.7" class="st2" width="1.2" height="1.2"/>
			<rect x="50.2" y="26.7" class="st2" width="1.2" height="1.2"/>
		</g>
		<g>
			<rect x="46.1" y="28.1" class="st2" width="1.2" height="1.2"/>
			<rect x="44.7" y="28.1" class="st2" width="1.2" height="1.2"/>
			<rect x="48.9" y="28.1" class="st2" width="1.2" height="1.2"/>
			<rect x="47.5" y="28.1" class="st2" width="1.2" height="1.2"/>
			<rect x="53" y="28.1" class="st2" width="1.2" height="1.2"/>
			<rect x="51.6" y="28.1" class="st2" width="1.2" height="1.2"/>
			<rect x="50.2" y="28.1" class="st2" width="1.2" height="1.2"/>
		</g>
		<g>
			<rect x="47.5" y="29.4" class="st2" width="1.2" height="1.2"/>
			<rect x="46.1" y="29.4" class="st2" width="1.2" height="1.2"/>
			<rect x="44.7" y="29.4" class="st2" width="1.2" height="1.2"/>
			<rect x="50.2" y="29.4" class="st2" width="1.2" height="1.2"/>
			<rect x="48.9" y="29.4" class="st2" width="1.2" height="1.2"/>
			<rect x="54.3" y="29.4" class="st2" width="1.2" height="1.2"/>
			<rect x="53" y="29.4" class="st2" width="1.2" height="1.2"/>
			<rect x="51.6" y="29.4" class="st2" width="1.2" height="1.2"/>
		</g>
		<g>
			<rect x="47.5" y="30.8" class="st2" width="1.2" height="1.2"/>
			<rect x="46.1" y="30.8" class="st2" width="1.2" height="1.2"/>
			<rect x="44.7" y="30.8" class="st2" width="1.2" height="1.2"/>
			<rect x="50.2" y="30.8" class="st2" width="1.2" height="1.2"/>
			<rect x="48.9" y="30.8" class="st2" width="1.2" height="1.2"/>
			<rect x="54.3" y="30.8" class="st2" width="1.2" height="1.2"/>
			<rect x="53" y="30.8" class="st2" width="1.2" height="1.2"/>
			<rect x="51.6" y="30.8" class="st2" width="1.2" height="1.2"/>
		</g>
		<g>
			<rect x="48.7" y="32.1" class="st2" width="1.2" height="1.2"/>
			<rect x="47.4" y="32.1" class="st2" width="1.2" height="1.2"/>
			<rect x="46" y="32.1" class="st2" width="1.2" height="1.2"/>
			<rect x="51.5" y="32.1" class="st2" width="1.2" height="1.2"/>
			<rect x="50.1" y="32.1" class="st2" width="1.2" height="1.2"/>
			<rect x="54.2" y="32.1" class="st2" width="1.2" height="1.2"/>
			<rect x="52.8" y="32.1" class="st2" width="1.2" height="1.2"/>
		</g>
		<g>
			<rect x="48.7" y="33.5" class="st2" width="1.2" height="1.2"/>
			<rect x="47.4" y="33.5" class="st2" width="1.2" height="1.2"/>
			<rect x="46" y="33.5" class="st2" width="1.2" height="1.2"/>
			<rect x="51.5" y="33.5" class="st2" width="1.2" height="1.2"/>
			<rect x="50.1" y="33.5" class="st2" width="1.2" height="1.2"/>
			<rect x="54.2" y="33.5" class="st2" width="1.2" height="1.2"/>
			<rect x="52.8" y="33.5" class="st2" width="1.2" height="1.2"/>
		</g>
		<g>
			<rect x="50.1" y="34.9" class="st2" width="1.2" height="1.2"/>
			<rect x="48.7" y="34.9" class="st2" width="1.2" height="1.2"/>
			<rect x="47.3" y="34.9" class="st2" width="1.2" height="1.2"/>
			<rect x="52.8" y="34.9" class="st2" width="1.2" height="1.2"/>
			<rect x="51.5" y="34.9" class="st2" width="1.2" height="1.2"/>
		</g>
		<g>
			<rect x="50.1" y="36.2" class="st2" width="1.2" height="1.2"/>
			<rect x="48.7" y="36.2" class="st2" width="1.2" height="1.2"/>
			<rect x="47.3" y="36.2" class="st2" width="1.2" height="1.2"/>
		</g>
		<g>
			<rect x="48.7" y="37.6" class="st2" width="1.2" height="1.2"/>
			<rect x="47.3" y="37.6" class="st2" width="1.2" height="1.2"/>
		</g>
		<g>
			<rect x="48.7" y="38.9" class="st2" width="1.2" height="1.2"/>
			<rect x="47.3" y="38.9" class="st2" width="1.2" height="1.2"/>
		</g>
		<rect x="47.3" y="40.3" class="st2" width="1.2" height="1.2"/>
		<g>
			<g>
				<rect x="30.4" y="13.1" class="st2" width="1.2" height="1.2"/>
				<rect x="29.1" y="13.1" class="st2" width="1.2" height="1.2"/>
				<rect x="27.7" y="13.1" class="st2" width="1.2" height="1.2"/>
				<rect x="33.2" y="13.1" class="st2" width="1.2" height="1.2"/>
				<rect x="31.8" y="13.1" class="st2" width="1.2" height="1.2"/>
				<rect x="37.3" y="13.1" class="st2" width="1.2" height="1.2"/>
				<rect x="35.9" y="13.1" class="st2" width="1.2" height="1.2"/>
				<rect x="34.5" y="13.1" class="st2" width="1.2" height="1.2"/>
				<rect x="40" y="13.1" class="st2" width="1.2" height="1.2"/>
				<rect x="38.6" y="13.1" class="st2" width="1.2" height="1.2"/>
				<rect x="44.1" y="13.1" class="st2" width="1.2" height="1.2"/>
				<rect x="42.8" y="13.1" class="st2" width="1.2" height="1.2"/>
				<rect x="41.4" y="13.1" class="st2" width="1.2" height="1.2"/>
			</g>
			<g>
				<rect x="50.1" y="13.1" class="st2" width="1.2" height="1.2"/>
				<rect x="48.7" y="13.1" class="st2" width="1.2" height="1.2"/>
			</g>
			<g>
				<rect x="54.1" y="13.1" class="st2" width="1.2" height="1.2"/>
				<rect x="52.8" y="13.1" class="st2" width="1.2" height="1.2"/>
			</g>
		</g>
		<g>
			<g>
				<rect x="32.7" y="11.8" class="st2" width="1.2" height="1.2"/>
				<rect x="31.3" y="11.8" class="st2" width="1.2" height="1.2"/>
				<rect x="30" y="11.8" class="st2" width="1.2" height="1.2"/>
				<rect x="35.4" y="11.8" class="st2" width="1.2" height="1.2"/>
				<rect x="34.1" y="11.8" class="st2" width="1.2" height="1.2"/>
			</g>
			<g>
				<rect x="50.1" y="11.8" class="st2" width="1.2" height="1.2"/>
				<rect x="48.7" y="11.8" class="st2" width="1.2" height="1.2"/>
				<rect x="47.3" y="11.8" class="st2" width="1.2" height="1.2"/>
				<rect x="52.8" y="11.8" class="st2" width="1.2" height="1.2"/>
				<rect x="51.4" y="11.8" class="st2" width="1.2" height="1.2"/>
				<rect x="56.9" y="11.8" class="st2" width="1.2" height="1.2"/>
				<rect x="55.5" y="11.8" class="st2" width="1.2" height="1.2"/>
				<rect x="54.2" y="11.8" class="st2" width="1.2" height="1.2"/>
				<rect x="58.3" y="11.8" class="st2" width="1.2" height="1.2"/>
			</g>
		</g>
		<g>
			<rect x="52.8" y="10.4" class="st2" width="1.2" height="1.2"/>
			<rect x="51.5" y="10.4" class="st2" width="1.2" height="1.2"/>
			<rect x="56.9" y="10.4" class="st2" width="1.2" height="1.2"/>
			<rect x="55.6" y="10.4" class="st2" width="1.2" height="1.2"/>
			<rect x="54.2" y="10.4" class="st2" width="1.2" height="1.2"/>
			<rect x="58.3" y="10.4" class="st2" width="1.2" height="1.2"/>
		</g>
		<g>
			<rect x="64.8" y="13" class="st2" width="1.2" height="1.2"/>
			<rect x="63.4" y="13" class="st2" width="1.2" height="1.2"/>
			<rect x="66.2" y="13" class="st2" width="1.2" height="1.2"/>
		</g>
		<g>
			<rect x="62.1" y="14.4" class="st2" width="1.2" height="1.2"/>
			<rect x="60.7" y="14.4" class="st2" width="1.2" height="1.2"/>
			<rect x="59.3" y="14.4" class="st2" width="1.2" height="1.2"/>
			<rect x="64.8" y="14.4" class="st2" width="1.2" height="1.2"/>
			<rect x="63.4" y="14.4" class="st2" width="1.2" height="1.2"/>
			<rect x="67.5" y="14.4" class="st2" width="1.2" height="1.2"/>
			<rect x="66.2" y="14.4" class="st2" width="1.2" height="1.2"/>
		</g>
		<g>
			<rect x="62.1" y="15.8" class="st2" width="1.2" height="1.2"/>
			<rect x="60.7" y="15.8" class="st2" width="1.2" height="1.2"/>
			<rect x="59.3" y="15.8" class="st2" width="1.2" height="1.2"/>
			<rect x="64.8" y="15.8" class="st2" width="1.2" height="1.2"/>
			<rect x="63.4" y="15.8" class="st2" width="1.2" height="1.2"/>
			<rect x="68.9" y="15.8" class="st2" width="1.2" height="1.2"/>
			<rect x="67.5" y="15.8" class="st2" width="1.2" height="1.2"/>
			<rect x="66.2" y="15.8" class="st2" width="1.2" height="1.2"/>
		</g>
		<g>
			<rect x="62.1" y="17.2" class="st2" width="1.2" height="1.2"/>
			<rect x="60.7" y="17.2" class="st2" width="1.2" height="1.2"/>
			<rect x="59.3" y="17.2" class="st2" width="1.2" height="1.2"/>
			<rect x="64.8" y="17.2" class="st2" width="1.2" height="1.2"/>
			<rect x="63.4" y="17.2" class="st2" width="1.2" height="1.2"/>
			<rect x="68.9" y="17.2" class="st2" width="1.2" height="1.2"/>
			<rect x="67.5" y="17.2" class="st2" width="1.2" height="1.2"/>
			<rect x="66.2" y="17.2" class="st2" width="1.2" height="1.2"/>
			<rect x="70.3" y="17.2" class="st2" width="1.2" height="1.2"/>
		</g>
		<g>
			<rect x="62.1" y="18.6" class="st2" width="1.2" height="1.2"/>
			<rect x="60.7" y="18.6" class="st2" width="1.2" height="1.2"/>
			<rect x="59.3" y="18.6" class="st2" width="1.2" height="1.2"/>
			<rect x="64.8" y="18.6" class="st2" width="1.2" height="1.2"/>
			<rect x="63.4" y="18.6" class="st2" width="1.2" height="1.2"/>
			<rect x="69" y="18.6" class="st2" width="1.2" height="1.2"/>
			<rect x="67.6" y="18.6" class="st2" width="1.2" height="1.2"/>
			<rect x="66.2" y="18.6" class="st2" width="1.2" height="1.2"/>
			<rect x="70.3" y="18.6" class="st2" width="1.2" height="1.2"/>
			<rect x="71.7" y="18.5" class="st2" width="1.2" height="1.2"/>
		</g>
		<g>
			<rect x="62.1" y="19.9" class="st2" width="1.2" height="1.2"/>
			<rect x="60.7" y="19.9" class="st2" width="1.2" height="1.2"/>
			<rect x="59.3" y="19.9" class="st2" width="1.2" height="1.2"/>
			<rect x="64.8" y="19.9" class="st2" width="1.2" height="1.2"/>
			<rect x="63.4" y="19.9" class="st2" width="1.2" height="1.2"/>
			<rect x="69" y="19.9" class="st2" width="1.2" height="1.2"/>
			<rect x="67.6" y="19.9" class="st2" width="1.2" height="1.2"/>
			<rect x="66.2" y="19.9" class="st2" width="1.2" height="1.2"/>
			<rect x="70.3" y="19.9" class="st2" width="1.2" height="1.2"/>
		</g>
		<g>
			<rect x="62.1" y="21.3" class="st2" width="1.2" height="1.2"/>
			<rect x="60.7" y="21.3" class="st2" width="1.2" height="1.2"/>
			<rect x="59.3" y="21.3" class="st2" width="1.2" height="1.2"/>
			<rect x="64.8" y="21.3" class="st2" width="1.2" height="1.2"/>
			<rect x="63.4" y="21.3" class="st2" width="1.2" height="1.2"/>
			<rect x="69" y="21.3" class="st2" width="1.2" height="1.2"/>
			<rect x="67.6" y="21.3" class="st2" width="1.2" height="1.2"/>
			<rect x="66.2" y="21.3" class="st2" width="1.2" height="1.2"/>
			<rect x="70.3" y="21.3" class="st2" width="1.2" height="1.2"/>
			<rect x="71.7" y="21.3" class="st2" width="1.2" height="1.2"/>
		</g>
		<g>
			<rect x="61" y="22.7" class="st2" width="1.2" height="1.2"/>
			<rect x="59.7" y="22.7" class="st2" width="1.2" height="1.2"/>
			<rect x="58.3" y="22.7" class="st2" width="1.2" height="1.2"/>
			<rect x="63.8" y="22.7" class="st2" width="1.2" height="1.2"/>
			<rect x="62.4" y="22.7" class="st2" width="1.2" height="1.2"/>
			<rect x="67.9" y="22.7" class="st2" width="1.2" height="1.2"/>
			<rect x="66.6" y="22.7" class="st2" width="1.2" height="1.2"/>
			<rect x="65.2" y="22.7" class="st2" width="1.2" height="1.2"/>
			<rect x="69.3" y="22.7" class="st2" width="1.2" height="1.2"/>
			<rect x="70.7" y="22.7" class="st2" width="1.2" height="1.2"/>
			<rect x="72.1" y="22.7" class="st2" width="1.2" height="1.2"/>
		</g>
		<g>
			<rect x="61" y="24.1" class="st2" width="1.2" height="1.2"/>
			<rect x="59.7" y="24.1" class="st2" width="1.2" height="1.2"/>
			<rect x="58.3" y="24.1" class="st2" width="1.2" height="1.2"/>
			<rect x="63.8" y="24.1" class="st2" width="1.2" height="1.2"/>
			<rect x="62.4" y="24.1" class="st2" width="1.2" height="1.2"/>
			<rect x="67.9" y="24.1" class="st2" width="1.2" height="1.2"/>
			<rect x="66.6" y="24.1" class="st2" width="1.2" height="1.2"/>
			<rect x="65.2" y="24.1" class="st2" width="1.2" height="1.2"/>
			<rect x="69.3" y="24.1" class="st2" width="1.2" height="1.2"/>
			<rect x="70.7" y="24.1" class="st2" width="1.2" height="1.2"/>
			<rect x="72.1" y="24.1" class="st2" width="1.2" height="1.2"/>
		</g>
		<g>
			<rect x="62.4" y="25.5" class="st2" width="1.2" height="1.2"/>
			<rect x="61.1" y="25.5" class="st2" width="1.2" height="1.2"/>
			<rect x="59.7" y="25.5" class="st2" width="1.2" height="1.2"/>
			<rect x="65.2" y="25.5" class="st2" width="1.2" height="1.2"/>
			<rect x="63.8" y="25.5" class="st2" width="1.2" height="1.2"/>
			<rect x="69.3" y="25.5" class="st2" width="1.2" height="1.2"/>
			<rect x="68" y="25.5" class="st2" width="1.2" height="1.2"/>
			<rect x="66.6" y="25.5" class="st2" width="1.2" height="1.2"/>
			<rect x="70.7" y="25.5" class="st2" width="1.2" height="1.2"/>
			<rect x="72.1" y="25.5" class="st2" width="1.2" height="1.2"/>
		</g>
		<g>
			<rect x="63.8" y="26.9" class="st2" width="1.2" height="1.2"/>
			<rect x="62.4" y="26.9" class="st2" width="1.2" height="1.2"/>
			<rect x="61.1" y="26.9" class="st2" width="1.2" height="1.2"/>
			<rect x="66.6" y="26.9" class="st2" width="1.2" height="1.2"/>
			<rect x="65.2" y="26.9" class="st2" width="1.2" height="1.2"/>
			<rect x="70.7" y="26.9" class="st2" width="1.2" height="1.2"/>
			<rect x="69.3" y="26.9" class="st2" width="1.2" height="1.2"/>
			<rect x="68" y="26.9" class="st2" width="1.2" height="1.2"/>
			<rect x="72.1" y="26.9" class="st2" width="1.2" height="1.2"/>
		</g>
		<g>
			<rect x="66.3" y="28.3" class="st2" width="1.2" height="1.2"/>
			<rect x="64.9" y="28.3" class="st2" width="1.2" height="1.2"/>
			<rect x="63.5" y="28.3" class="st2" width="1.2" height="1.2"/>
			<rect x="69" y="28.3" class="st2" width="1.2" height="1.2"/>
			<rect x="67.7" y="28.3" class="st2" width="1.2" height="1.2"/>
			<rect x="71.8" y="28.3" class="st2" width="1.2" height="1.2"/>
			<rect x="70.4" y="28.3" class="st2" width="1.2" height="1.2"/>
		</g>
		<g>
			<rect x="66.3" y="29.7" class="st2" width="1.2" height="1.2"/>
			<rect x="64.9" y="29.7" class="st2" width="1.2" height="1.2"/>
			<rect x="63.5" y="29.7" class="st2" width="1.2" height="1.2"/>
			<rect x="69" y="29.7" class="st2" width="1.2" height="1.2"/>
			<rect x="67.7" y="29.7" class="st2" width="1.2" height="1.2"/>
			<rect x="71.8" y="29.7" class="st2" width="1.2" height="1.2"/>
			<rect x="70.4" y="29.7" class="st2" width="1.2" height="1.2"/>
		</g>
		<g>
			<rect x="66.3" y="31" class="st2" width="1.2" height="1.2"/>
			<rect x="64.9" y="31" class="st2" width="1.2" height="1.2"/>
			<rect x="63.5" y="31" class="st2" width="1.2" height="1.2"/>
			<rect x="69" y="31" class="st2" width="1.2" height="1.2"/>
			<rect x="67.7" y="31" class="st2" width="1.2" height="1.2"/>
			<rect x="70.4" y="31" class="st2" width="1.2" height="1.2"/>
		</g>
		<g>
			<rect x="66.3" y="32.4" class="st2" width="1.2" height="1.2"/>
			<rect x="64.9" y="32.4" class="st2" width="1.2" height="1.2"/>
			<rect x="63.5" y="32.4" class="st2" width="1.2" height="1.2"/>
			<rect x="69" y="32.4" class="st2" width="1.2" height="1.2"/>
			<rect x="67.7" y="32.4" class="st2" width="1.2" height="1.2"/>
		</g>
		<g>
			<rect x="67.4" y="33.8" class="st2" width="1.2" height="1.2"/>
			<rect x="66" y="33.8" class="st2" width="1.2" height="1.2"/>
			<rect x="64.6" y="33.8" class="st2" width="1.2" height="1.2"/>
		</g>
		<g>
			<rect x="66" y="35.1" class="st2" width="1.2" height="1.2"/>
			<rect x="64.6" y="35.1" class="st2" width="1.2" height="1.2"/>
		</g>
		<rect x="64.6" y="36.5" class="st2" width="1.2" height="1.2"/>
	</g>
</g>
</svg>
