<svg id="6ff1beac-88a0-4fd7-b476-4cc1a421fbc6" data-name="Layer 1" xmlns="http://www.w3.org/2000/svg" width="208.64" height="36.44" viewBox="0 0 208.64 36.44"><title>logo-icetex</title><path d="M174.21,28V21.65h6.18a27.7,27.7,0,0,1,7.33-7.75A23.4,23.4,0,0,1,184.45,8H174.21V.81h17.23c-.41,4.88.83,7.19,2.47,9,3.46-2.08,5.75-5.57,8-9h7.43C206.37,6,202.91,11,197.94,14l.24.37c3.83,6.31,3.24,14.16.86,22.81h-7.5c2.57-6.23,3.51-13.79-.26-18.74a25.26,25.26,0,0,0-8,9.6h-4.9V28Zm0-10.07h1.06V11.36h-1.06ZM60.41.81h7v27.3h-7V.81Zm113.8,0V8H161.37a1.89,1.89,0,0,0-.67,1.46v1.91h13.51V17.9H160.7v1.91a1.79,1.79,0,0,0,1.71,1.84h11.79V28H162.3c-4.59,0-8.35-4.7-8.35-10.44V8H142.1V27.9h-7.18V8H105.36a1.44,1.44,0,0,0-1.44,1.44v2h14.3v6.53h-14.3v3.18h19.29v7H77.86a8.44,8.44,0,0,1-8.42-8.42V9.22A8.44,8.44,0,0,1,77.86.81H95.3v7H78.47a2.22,2.22,0,0,0-2.26,2.16v9a2.22,2.22,0,0,0,2.26,2.16H97a7.88,7.88,0,0,1-.1-1.27V9.06A8.47,8.47,0,0,1,105.56.81Z" transform="translate(-0.68 -0.78)" fill="#e0e3e9" fill-rule="evenodd"/><path d="M184,35.22v-.6a1.06,1.06,0,0,0,.35-.2,1.91,1.91,0,0,0,.5-.79,3.11,3.11,0,0,0,.21-1.13,1.6,1.6,0,0,0-.24-1,.72.72,0,0,0-.59-.32.81.81,0,0,0-.23,0v-.6l.25,0a1.24,1.24,0,0,1,1,.48,2.11,2.11,0,0,1,.4,1.37,3.72,3.72,0,0,1-.27,1.46,2.24,2.24,0,0,1-.7,1A1.55,1.55,0,0,1,184,35.22Zm0-4.57v.6a1.06,1.06,0,0,0-.37.2,1.76,1.76,0,0,0-.49.78,3.35,3.35,0,0,0-.2,1.16,1.55,1.55,0,0,0,.24.95.73.73,0,0,0,.6.32.71.71,0,0,0,.22,0v.6l-.23,0a1.29,1.29,0,0,1-1-.47,1.94,1.94,0,0,1-.4-1.3,3.7,3.7,0,0,1,.52-2,1.61,1.61,0,0,1,1.14-.8Zm-7.63,4.49V34.6a1.08,1.08,0,0,0,.26-.13,1.32,1.32,0,0,0,.43-.53,3.75,3.75,0,0,0,.27-1,2.44,2.44,0,0,1-.75.17l-.21,0v-.56h0a6.86,6.86,0,0,0,.69-.06,1.14,1.14,0,0,0,.32-.1,2.35,2.35,0,0,0,.07-.51.56.56,0,0,0-.19-.45.84.84,0,0,0-.56-.17,1.06,1.06,0,0,0-.36.06v-.63a1.86,1.86,0,0,1,.39,0,1.35,1.35,0,0,1,1,.33,1.07,1.07,0,0,1,.35.82,4.94,4.94,0,0,1-.08.82l-.19,1.1a5.09,5.09,0,0,0-.09.84,3.55,3.55,0,0,0,.07.6h-.6a3,3,0,0,1-.07-.55,2.3,2.3,0,0,1-.62.5l-.12.05Zm2.12,0,.73-4.4h.54l-.12.77a2.78,2.78,0,0,1,.69-.68,1.14,1.14,0,0,1,.6-.19.84.84,0,0,1,.66.28,1.16,1.16,0,0,1,.25.8,5.19,5.19,0,0,1-.09.75l-.44,2.67h-.6l.47-2.79a4.16,4.16,0,0,0,.07-.6.5.5,0,0,0-.13-.36.46.46,0,0,0-.34-.13,1.06,1.06,0,0,0-.81.41,2.94,2.94,0,0,0-.53,1.43l-.34,2Zm-2.12-4.46v.63a1,1,0,0,0-.61.75l-.6-.07a1.63,1.63,0,0,1,1.21-1.31Zm0,1.87v.56a2.15,2.15,0,0,0-.53.12.69.69,0,0,0-.31.28.83.83,0,0,0-.11.43.75.75,0,0,0,.18.53.62.62,0,0,0,.48.2.88.88,0,0,0,.29-.05v.54a1.26,1.26,0,0,1-.47.09,1,1,0,0,1-.77-.34,1.36,1.36,0,0,1-.31-.94,1.48,1.48,0,0,1,.18-.74,1.19,1.19,0,0,1,.5-.48,2.19,2.19,0,0,1,.88-.19Zm-5,2.68v-.63a.93.93,0,0,0,.31-.18,1.92,1.92,0,0,0,.45-.8,3.51,3.51,0,0,0,.2-1.15,1.57,1.57,0,0,0-.21-.91.64.64,0,0,0-.54-.3.58.58,0,0,0-.2,0v-.55a.9.9,0,0,1,.39-.09,1,1,0,0,1,.82.45,2.26,2.26,0,0,1,.33,1.35,4,4,0,0,1-.27,1.49,2.4,2.4,0,0,1-.66,1,1.34,1.34,0,0,1-.61.31Zm2.75-5.31.14-.85h.59l-.14.85Zm-.87,5.23.73-4.4h.59l-.73,4.4Zm-1.88-4.41v.55a1,1,0,0,0-.36.26,2.39,2.39,0,0,0-.46,1,3.26,3.26,0,0,0-.14.83v.16a1.39,1.39,0,0,0,.22.85.66.66,0,0,0,.54.29.62.62,0,0,0,.2,0v.63h-.16q-.72,0-1-.93l-.14.83h-.52l1-6.08h.6l-.36,2.17a2.09,2.09,0,0,1,.52-.47l.07,0Zm-9.43,4.49v-.6a1.06,1.06,0,0,0,.35-.2,1.91,1.91,0,0,0,.5-.79,3.11,3.11,0,0,0,.21-1.13,1.6,1.6,0,0,0-.24-1,.72.72,0,0,0-.59-.32.81.81,0,0,0-.23,0v-.6l.25,0a1.24,1.24,0,0,1,1,.48,2.1,2.1,0,0,1,.4,1.37,3.72,3.72,0,0,1-.27,1.46,2.24,2.24,0,0,1-.7,1,1.55,1.55,0,0,1-.68.3Zm2-.08.73-4.4h.59l-.12.72a2.54,2.54,0,0,1,.6-.66,1,1,0,0,1,.55-.17.75.75,0,0,1,.54.21,1.08,1.08,0,0,1,.29.61,2.16,2.16,0,0,1,.56-.62,1.08,1.08,0,0,1,.62-.21.83.83,0,0,1,.64.25,1.06,1.06,0,0,1,.23.73,4.55,4.55,0,0,1-.08.68l-.47,2.84H168l.48-2.91a3.6,3.6,0,0,0,.06-.51.49.49,0,0,0-.11-.34.4.4,0,0,0-.3-.12.92.92,0,0,0-.52.19,1.33,1.33,0,0,0-.44.52,4,4,0,0,0-.28,1l-.35,2.14h-.6l.49-3a3,3,0,0,0,.05-.43.51.51,0,0,0-.11-.35.35.35,0,0,0-.28-.13,1,1,0,0,0-.75.42,2.9,2.9,0,0,0-.51,1.39l-.35,2.08Zm-2-4.49v.6a1.06,1.06,0,0,0-.37.2,1.76,1.76,0,0,0-.49.78,3.36,3.36,0,0,0-.2,1.16,1.55,1.55,0,0,0,.24.95.73.73,0,0,0,.6.32.71.71,0,0,0,.22,0v.6l-.23,0a1.29,1.29,0,0,1-1-.47,1.94,1.94,0,0,1-.41-1.3,3.7,3.7,0,0,1,.52-2,1.61,1.61,0,0,1,1.14-.8Zm-5.24,4.57v-.6a1.06,1.06,0,0,0,.35-.2,1.91,1.91,0,0,0,.5-.79,3.11,3.11,0,0,0,.21-1.13,1.6,1.6,0,0,0-.24-1,.72.72,0,0,0-.59-.32.81.81,0,0,0-.23,0v-.6l.25,0a1.24,1.24,0,0,1,1,.48,2.1,2.1,0,0,1,.4,1.37,3.72,3.72,0,0,1-.27,1.46,2.24,2.24,0,0,1-.7,1,1.55,1.55,0,0,1-.68.3Zm1.93-.08,1-6.08h.6l-1,6.08Zm-1.93-4.49v.6a1.06,1.06,0,0,0-.37.2,1.76,1.76,0,0,0-.49.78,3.36,3.36,0,0,0-.2,1.16,1.55,1.55,0,0,0,.24.95.73.73,0,0,0,.6.32.71.71,0,0,0,.22,0v.6l-.23,0a1.29,1.29,0,0,1-1-.47,1.94,1.94,0,0,1-.41-1.3,3.7,3.7,0,0,1,.52-2,1.61,1.61,0,0,1,1.14-.8Zm-12.35,4.57v-.6a1.06,1.06,0,0,0,.35-.2,1.91,1.91,0,0,0,.5-.79,3.11,3.11,0,0,0,.21-1.13,1.6,1.6,0,0,0-.24-1,.72.72,0,0,0-.59-.32.81.81,0,0,0-.23,0v-.6l.25,0a1.24,1.24,0,0,1,1,.48,2.1,2.1,0,0,1,.4,1.37,3.72,3.72,0,0,1-.27,1.46,2.24,2.24,0,0,1-.7,1,1.55,1.55,0,0,1-.68.3Zm2-1.58.6,0a1.18,1.18,0,0,0,.23.81.8.8,0,0,0,.63.26.84.84,0,0,0,.58-.19.62.62,0,0,0,.21-.48.6.6,0,0,0-.13-.38,2.06,2.06,0,0,0-.59-.41,4,4,0,0,1-.69-.43,1,1,0,0,1-.26-.37,1.23,1.23,0,0,1-.09-.49,1.25,1.25,0,0,1,.34-.91,1.2,1.2,0,0,1,.91-.36,1.32,1.32,0,0,1,1,.37,1.45,1.45,0,0,1,.38,1l-.59,0a.91.91,0,0,0-.23-.64.78.78,0,0,0-.59-.22.66.66,0,0,0-.47.17.53.53,0,0,0-.07.72,1.93,1.93,0,0,0,.55.38,3.37,3.37,0,0,1,.86.59,1.29,1.29,0,0,1,.28.84,1.32,1.32,0,0,1-.37.94,1.58,1.58,0,0,1-2.09,0,1.56,1.56,0,0,1-.38-1.12v-.08Zm7.61-.1.6.08a2.62,2.62,0,0,1-.64,1.23,1.32,1.32,0,0,1-.93.4,1.12,1.12,0,0,1-.92-.45,2.05,2.05,0,0,1-.36-1.31,4.2,4.2,0,0,1,.27-1.53,2.25,2.25,0,0,1,.67-1,1.46,1.46,0,0,1,.9-.31,1.11,1.11,0,0,1,.88.39,1.55,1.55,0,0,1,.34,1.07l-.59,0a1,1,0,0,0-.19-.66.61.61,0,0,0-.48-.23.86.86,0,0,0-.57.22,1.76,1.76,0,0,0-.44.8,4.27,4.27,0,0,0-.19,1.3,1.35,1.35,0,0,0,.2.81.59.59,0,0,0,.48.28.77.77,0,0,0,.55-.28A1.91,1.91,0,0,0,153.95,33.53Zm-9.63-2.88v.6a1.06,1.06,0,0,0-.37.2,1.76,1.76,0,0,0-.49.78,3.35,3.35,0,0,0-.2,1.16,1.55,1.55,0,0,0,.24.95.73.73,0,0,0,.6.32.71.71,0,0,0,.22,0v.6l-.23,0a1.29,1.29,0,0,1-1-.47,1.94,1.94,0,0,1-.4-1.3,3.7,3.7,0,0,1,.52-2,1.61,1.61,0,0,1,1.14-.8Zm-7.06,4.55v-.64a1.16,1.16,0,0,0,.29-.19,1.64,1.64,0,0,0,.46-.73l.58.07a2.11,2.11,0,0,1-.67,1.12,1.47,1.47,0,0,1-.66.37Zm0-2.08v-.57h1v-.15a1.45,1.45,0,0,0-.22-.88.69.69,0,0,0-.57-.29l-.18,0v-.59h.17a1.21,1.21,0,0,1,1,.48,2.1,2.1,0,0,1,.38,1.35,5.28,5.28,0,0,1,0,.66Zm3.75,2,1-6.08h.6l-1,6.08Zm-3.75-4.49v.59a1,1,0,0,0-.51.31,2.14,2.14,0,0,0-.47,1h1v.57h-1.08c0,.09,0,.17,0,.24a1.63,1.63,0,0,0,.23.94.67.67,0,0,0,.55.32.77.77,0,0,0,.31-.07v.64a1.35,1.35,0,0,1-.31,0,1.2,1.2,0,0,1-.69-.21,1.44,1.44,0,0,1-.5-.64,2.53,2.53,0,0,1-.18-1,3.72,3.72,0,0,1,.28-1.45,2.33,2.33,0,0,1,.69-1,1.46,1.46,0,0,1,.71-.3Zm-3.88,4.5v-.55a1.14,1.14,0,0,0,.52-.49,3.27,3.27,0,0,0,.44-1.74,1.32,1.32,0,0,0-.22-.82.66.66,0,0,0-.53-.29.64.64,0,0,0-.2,0v-.64h.17a1.06,1.06,0,0,1,1,.79l.39-2.37h.59l-1,6.08h-.55l.1-.64A1.84,1.84,0,0,1,133.38,35.14Zm0-4.5v.64a.89.89,0,0,0-.37.25,2,2,0,0,0-.42.83,3.43,3.43,0,0,0-.16.93v.18a1.53,1.53,0,0,0,.24.9.58.58,0,0,0,.5.27.6.6,0,0,0,.21,0v.55a.89.89,0,0,1-.39.09,1,1,0,0,1-.82-.45,2.26,2.26,0,0,1-.34-1.36,4,4,0,0,1,.27-1.48,2.38,2.38,0,0,1,.66-1,1.36,1.36,0,0,1,.61-.31Zm-5.53,4.57v-.6a1.06,1.06,0,0,0,.35-.2,1.91,1.91,0,0,0,.5-.79,3.11,3.11,0,0,0,.21-1.13,1.6,1.6,0,0,0-.24-1,.72.72,0,0,0-.59-.32.81.81,0,0,0-.23,0v-.6l.25,0a1.24,1.24,0,0,1,1,.48,2.1,2.1,0,0,1,.4,1.37,3.72,3.72,0,0,1-.27,1.46,2.24,2.24,0,0,1-.7,1A1.55,1.55,0,0,1,127.85,35.22Zm0-4.57v.6a1.06,1.06,0,0,0-.37.2,1.76,1.76,0,0,0-.49.78,3.35,3.35,0,0,0-.2,1.16,1.55,1.55,0,0,0,.24.95.73.73,0,0,0,.6.32.71.71,0,0,0,.22,0v.6l-.23,0a1.29,1.29,0,0,1-1-.47,1.94,1.94,0,0,1-.41-1.3,3.7,3.7,0,0,1,.52-2,1.61,1.61,0,0,1,1.14-.8Zm-9.31,4.55v-.64a1.16,1.16,0,0,0,.29-.19,1.64,1.64,0,0,0,.46-.73l.58.07a2.11,2.11,0,0,1-.67,1.12,1.47,1.47,0,0,1-.66.37Zm0-2.08v-.57h1v-.15a1.45,1.45,0,0,0-.22-.88.69.69,0,0,0-.57-.29l-.18,0v-.59h.17a1.21,1.21,0,0,1,1,.48,2.1,2.1,0,0,1,.38,1.35,5.28,5.28,0,0,1,0,.66Zm1.93,2,.73-4.4h.54l-.12.77a2.78,2.78,0,0,1,.69-.68,1.15,1.15,0,0,1,.6-.19.84.84,0,0,1,.66.28,1.16,1.16,0,0,1,.25.8,5.19,5.19,0,0,1-.09.75l-.44,2.67h-.6l.47-2.79a4.17,4.17,0,0,0,.07-.6.5.5,0,0,0-.13-.36.46.46,0,0,0-.34-.13,1.06,1.06,0,0,0-.81.41,2.94,2.94,0,0,0-.53,1.43l-.34,2Zm5.14-.61-.1.61a1.32,1.32,0,0,1-.41.07.74.74,0,0,1-.53-.18.64.64,0,0,1-.19-.49,5.58,5.58,0,0,1,.09-.67l.42-2.56h-.47l.1-.58H125l.18-1.08.68-.52-.27,1.6h.58l-.1.58h-.58l-.41,2.43c-.05.31-.08.5-.08.55a.3.3,0,0,0,.06.21.26.26,0,0,0,.2.07A1.14,1.14,0,0,0,125.61,34.53Zm-7.07-3.88v.59a1,1,0,0,0-.51.31,2.14,2.14,0,0,0-.47,1h1v.57h-1.08c0,.09,0,.17,0,.24a1.63,1.63,0,0,0,.23.94.67.67,0,0,0,.55.32.77.77,0,0,0,.31-.07v.64a1.35,1.35,0,0,1-.31,0,1.2,1.2,0,0,1-.69-.21,1.44,1.44,0,0,1-.5-.64,2.53,2.53,0,0,1-.18-1,3.72,3.72,0,0,1,.28-1.45,2.33,2.33,0,0,1,.69-1,1.46,1.46,0,0,1,.71-.3Zm-5.43,4.5V34.6a1.08,1.08,0,0,0,.26-.13,1.32,1.32,0,0,0,.43-.53,3.75,3.75,0,0,0,.27-1,2.44,2.44,0,0,1-.75.17l-.21,0v-.56h0a6.86,6.86,0,0,0,.69-.06,1.14,1.14,0,0,0,.32-.1,2.35,2.35,0,0,0,.07-.51.56.56,0,0,0-.19-.45.84.84,0,0,0-.56-.17,1.06,1.06,0,0,0-.36.06v-.63a1.86,1.86,0,0,1,.39,0,1.35,1.35,0,0,1,1,.33,1.07,1.07,0,0,1,.35.82,4.94,4.94,0,0,1-.08.82l-.19,1.1a5.09,5.09,0,0,0-.09.84,3.55,3.55,0,0,0,.07.6h-.6a3,3,0,0,1-.07-.55,2.3,2.3,0,0,1-.62.5l-.12.05Zm2.08,0,1-6.08h.6l-1,6.08Zm-2.08-4.46v.63a1,1,0,0,0-.61.75l-.6-.07a1.63,1.63,0,0,1,1.21-1.31Zm0,1.87v.56a2.15,2.15,0,0,0-.53.12.69.69,0,0,0-.31.28.83.83,0,0,0-.11.43.75.75,0,0,0,.18.53.62.62,0,0,0,.48.2.88.88,0,0,0,.29-.05v.54a1.26,1.26,0,0,1-.47.09,1,1,0,0,1-.77-.34,1.36,1.36,0,0,1-.31-.94,1.48,1.48,0,0,1,.18-.74,1.19,1.19,0,0,1,.5-.48,2.19,2.19,0,0,1,.88-.19Zm-8.79,2.66v-.64a1.16,1.16,0,0,0,.29-.19,1.64,1.64,0,0,0,.46-.73l.58.07a2.11,2.11,0,0,1-.67,1.12,1.47,1.47,0,0,1-.66.37Zm0-2.08v-.57h1v-.15a1.45,1.45,0,0,0-.22-.88.69.69,0,0,0-.57-.29l-.18,0v-.59h.17a1.21,1.21,0,0,1,1,.48,2.1,2.1,0,0,1,.38,1.35,5.28,5.28,0,0,1,0,.66Zm1.88,2,1-6.08h.6l-1,6.08Zm4.81-.61-.1.61a1.32,1.32,0,0,1-.41.07A.74.74,0,0,1,110,35a.64.64,0,0,1-.19-.49,5.59,5.59,0,0,1,.09-.67l.42-2.56h-.47l.1-.58h.47l.18-1.08.68-.52-.27,1.6h.58l-.1.58h-.58l-.41,2.43c-.05.31-.08.5-.08.55a.3.3,0,0,0,.06.21.26.26,0,0,0,.2.07A1.14,1.14,0,0,0,111,34.53Zm-6.69-3.88v.59a1,1,0,0,0-.51.31,2.14,2.14,0,0,0-.47,1h1v.57h-1.08c0,.09,0,.17,0,.24a1.63,1.63,0,0,0,.23.94.67.67,0,0,0,.55.32.77.77,0,0,0,.31-.07v.64a1.35,1.35,0,0,1-.31,0,1.2,1.2,0,0,1-.69-.21,1.44,1.44,0,0,1-.5-.64,2.53,2.53,0,0,1-.18-1,3.72,3.72,0,0,1,.28-1.45,2.33,2.33,0,0,1,.69-1,1.46,1.46,0,0,1,.71-.3ZM95,35.2v-.64a1.16,1.16,0,0,0,.29-.19,1.64,1.64,0,0,0,.46-.73l.58.07a2.11,2.11,0,0,1-.67,1.12,1.47,1.47,0,0,1-.66.37Zm0-2.08v-.57h1v-.15a1.45,1.45,0,0,0-.22-.88.69.69,0,0,0-.57-.29l-.18,0v-.59h.17a1.21,1.21,0,0,1,1,.48,2.1,2.1,0,0,1,.38,1.35,5.26,5.26,0,0,1,0,.66Zm1.93,2,.73-4.4h.54L98,31.5a2.78,2.78,0,0,1,.69-.68,1.15,1.15,0,0,1,.6-.19.84.84,0,0,1,.66.28,1.16,1.16,0,0,1,.25.8,5.19,5.19,0,0,1-.09.75l-.44,2.67h-.6l.47-2.79a4.16,4.16,0,0,0,.07-.6.5.5,0,0,0-.13-.36.46.46,0,0,0-.34-.13,1.06,1.06,0,0,0-.81.41,2.94,2.94,0,0,0-.53,1.43l-.34,2ZM95,30.64v.59a1,1,0,0,0-.51.31,2.14,2.14,0,0,0-.47,1h1v.57H93.89c0,.09,0,.17,0,.24a1.63,1.63,0,0,0,.23.94.67.67,0,0,0,.55.32.77.77,0,0,0,.31-.07v.64a1.35,1.35,0,0,1-.31,0A1.2,1.2,0,0,1,94,35a1.44,1.44,0,0,1-.5-.64,2.53,2.53,0,0,1-.18-1,3.72,3.72,0,0,1,.28-1.45,2.33,2.33,0,0,1,.69-1,1.46,1.46,0,0,1,.71-.3Zm-9,4.57v-.6a1.06,1.06,0,0,0,.35-.2,1.91,1.91,0,0,0,.5-.79A3.11,3.11,0,0,0,87,32.49a1.6,1.6,0,0,0-.24-1,.72.72,0,0,0-.59-.32.81.81,0,0,0-.23,0v-.6l.25,0a1.24,1.24,0,0,1,1,.48,2.1,2.1,0,0,1,.4,1.37,3.72,3.72,0,0,1-.27,1.46,2.24,2.24,0,0,1-.7,1,1.55,1.55,0,0,1-.68.3Zm2-1.58.6,0a1.18,1.18,0,0,0,.23.81.8.8,0,0,0,.63.26.84.84,0,0,0,.58-.19.62.62,0,0,0,.21-.48.6.6,0,0,0-.13-.38,2.06,2.06,0,0,0-.59-.41,4,4,0,0,1-.69-.43,1,1,0,0,1-.26-.37,1.23,1.23,0,0,1-.09-.49,1.25,1.25,0,0,1,.34-.91,1.2,1.2,0,0,1,.91-.36,1.32,1.32,0,0,1,1,.37A1.45,1.45,0,0,1,91,32l-.59,0a.91.91,0,0,0-.23-.64.78.78,0,0,0-.59-.22.66.66,0,0,0-.47.17.53.53,0,0,0-.07.72,1.93,1.93,0,0,0,.55.38,3.37,3.37,0,0,1,.86.59,1.29,1.29,0,0,1,.28.84,1.32,1.32,0,0,1-.37.94,1.58,1.58,0,0,1-2.09,0,1.56,1.56,0,0,1-.38-1.12Zm-2-3v.6a1.06,1.06,0,0,0-.37.2,1.76,1.76,0,0,0-.49.78,3.35,3.35,0,0,0-.2,1.16,1.55,1.55,0,0,0,.24.95.73.73,0,0,0,.6.32.71.71,0,0,0,.22,0v.6l-.23,0a1.29,1.29,0,0,1-1-.47,1.94,1.94,0,0,1-.41-1.3,3.7,3.7,0,0,1,.52-2,1.61,1.61,0,0,1,1.14-.8Zm-8.85,4.49v-.27l.69-4.14h.59l-.73,4.4Zm0-4.13,0-.27h0V31Zm.82-1.09.14-.85h.59l-.14.85Zm.65,5.23.73-4.4h.59l-.12.72a2.54,2.54,0,0,1,.6-.66,1,1,0,0,1,.55-.17.75.75,0,0,1,.54.21,1.08,1.08,0,0,1,.29.61,2.16,2.16,0,0,1,.56-.62,1.08,1.08,0,0,1,.62-.21.83.83,0,0,1,.64.25,1.06,1.06,0,0,1,.23.73,4.55,4.55,0,0,1-.08.68l-.47,2.84h-.59l.48-2.91a3.59,3.59,0,0,0,.06-.51.49.49,0,0,0-.11-.34.4.4,0,0,0-.3-.12.92.92,0,0,0-.52.19,1.33,1.33,0,0,0-.44.52,4,4,0,0,0-.28,1l-.35,2.14h-.6l.49-3a3,3,0,0,0,.05-.43.51.51,0,0,0-.11-.35.34.34,0,0,0-.28-.13,1,1,0,0,0-.75.42,2.9,2.9,0,0,0-.51,1.39l-.35,2.08Zm-1.47-4.4V31l-.05.31h-.58L76,33.75c-.05.31-.08.5-.08.55a.3.3,0,0,0,.06.21.26.26,0,0,0,.2.07,1.14,1.14,0,0,0,.35,0l-.1.61a1.32,1.32,0,0,1-.41.07.74.74,0,0,1-.53-.18l-.09-.11V33.78l.4-2.47h-.4v-.22l.1-.3-.1-.06v.2l0-.2h.47l.18-1.08.68-.52-.27,1.6Zm0,4.14,0,.27h0Zm-1.64-4.13v.2l-.06.38h.06v-.22l-.14.4a.48.48,0,0,0-.33-.14.88.88,0,0,0-.66.45,3.88,3.88,0,0,0-.51,1.57l-.3,1.77h-.57l.73-4.4h.53l-.15.9q.53-1,1.05-1a.74.74,0,0,1,.34.1Zm0,3,0,.09a5.58,5.58,0,0,0-.09.67.68.68,0,0,0,.1.38V33.78ZM71,35.2v-.64a1.16,1.16,0,0,0,.29-.19,1.64,1.64,0,0,0,.46-.73l.58.07a2.11,2.11,0,0,1-.67,1.12,1.47,1.47,0,0,1-.66.37Zm0-2.08v-.57h1v-.15a1.45,1.45,0,0,0-.22-.88.69.69,0,0,0-.57-.29l-.18,0v-.59h.17a1.21,1.21,0,0,1,1,.48,2.1,2.1,0,0,1,.38,1.35,5.26,5.26,0,0,1,0,.66Zm0-2.48v.59a1,1,0,0,0-.51.31,2.14,2.14,0,0,0-.47,1h1v.57H69.94c0,.09,0,.17,0,.24a1.63,1.63,0,0,0,.23.94.67.67,0,0,0,.55.32.77.77,0,0,0,.31-.07v.64a1.35,1.35,0,0,1-.31,0A1.2,1.2,0,0,1,70,35a1.44,1.44,0,0,1-.5-.64,2.23,2.23,0,0,1-.16-.63v-.81a3.63,3.63,0,0,1,.26-1,2.33,2.33,0,0,1,.69-1,1.46,1.46,0,0,1,.72-.3Zm-1.67.14,0,0h0Zm-9,4.35,1-6.08H62l-1,6.08Zm9-4.4v0l-2,4.35h-.66l-.57-4.4h.58l.3,2.43q0,.41.12,1.3c.11-.32.26-.67.44-1.07l1.16-2.65Zm0,2.21a4,4,0,0,0,0,.42,3.26,3.26,0,0,0,0,.39v-.81ZM62.1,35.14l.73-4.4h.54l-.12.77a2.78,2.78,0,0,1,.69-.68,1.15,1.15,0,0,1,.6-.19.84.84,0,0,1,.66.28,1.16,1.16,0,0,1,.25.8,5.18,5.18,0,0,1-.09.75l-.44,2.67h-.6l.47-2.79a4.17,4.17,0,0,0,.07-.6.5.5,0,0,0-.13-.36.46.46,0,0,0-.34-.13,1.06,1.06,0,0,0-.81.41A2.94,2.94,0,0,0,63,33.09l-.34,2Z" transform="translate(-0.68 -0.78)" fill="#e0e3e9"/><path d="M186,33.63l.6,0a1.18,1.18,0,0,0,.23.81.8.8,0,0,0,.63.26.84.84,0,0,0,.58-.19.62.62,0,0,0,.21-.48.6.6,0,0,0-.13-.38,2.06,2.06,0,0,0-.59-.41,4,4,0,0,1-.69-.43,1,1,0,0,1-.26-.37,1.23,1.23,0,0,1-.09-.49,1.25,1.25,0,0,1,.34-.91,1.2,1.2,0,0,1,.91-.36,1.32,1.32,0,0,1,1,.37,1.45,1.45,0,0,1,.38,1l-.59,0a.91.91,0,0,0-.23-.64.78.78,0,0,0-.59-.22.66.66,0,0,0-.47.17.53.53,0,0,0-.07.72,1.93,1.93,0,0,0,.55.38,3.37,3.37,0,0,1,.86.59,1.29,1.29,0,0,1,.28.84,1.32,1.32,0,0,1-.37.94,1.58,1.58,0,0,1-2.09,0,1.56,1.56,0,0,1-.38-1.12Z" transform="translate(-0.68 -0.78)" fill="#e0e3e9"/><path d="M7.46.81H57.74V35.29H7.46c-3.73,0-6.77-2.75-6.77-6.1V6.91C.68,3.55,3.73.81,7.46.81Z" transform="translate(-0.68 -0.78)" fill="#e0e3e9" fill-rule="evenodd"/><rect x="9.33" y="8.82" width="1.07" height="1.07" fill="#001c7e"/><rect x="9.33" y="10.03" width="1.07" height="1.07" fill="#001c7e"/><rect x="8.11" y="10.03" width="1.07" height="1.07" fill="#001c7e"/><rect x="6.89" y="10.03" width="1.07" height="1.07" fill="#001c7e"/><rect x="8.12" y="11.23" width="1.07" height="1.07" fill="#001c7e"/><rect x="6.89" y="11.23" width="1.07" height="1.07" fill="#001c7e"/><rect x="8.42" y="12.44" width="1.07" height="1.07" fill="#001c7e"/><rect x="7.17" y="12.44" width="1.07" height="1.07" fill="#001c7e"/><rect x="5.93" y="12.44" width="1.07" height="1.07" fill="#001c7e"/><rect x="8.42" y="13.65" width="1.07" height="1.07" fill="#001c7e"/><rect x="7.17" y="13.65" width="1.07" height="1.07" fill="#001c7e"/><rect x="5.93" y="13.65" width="1.07" height="1.07" fill="#001c7e"/><rect x="5.85" y="14.85" width="1.07" height="1.07" fill="#001c7e"/><rect x="4.62" y="14.85" width="1.07" height="1.07" fill="#001c7e"/><rect x="5.85" y="16.06" width="1.07" height="1.07" fill="#001c7e"/><rect x="4.62" y="16.06" width="1.07" height="1.07" fill="#001c7e"/><rect x="7.11" y="17.27" width="1.07" height="1.07" fill="#001c7e"/><rect x="5.87" y="17.27" width="1.07" height="1.07" fill="#001c7e"/><rect x="4.62" y="17.27" width="1.07" height="1.07" fill="#001c7e"/><rect x="7.05" y="18.47" width="1.07" height="1.07" fill="#001c7e"/><rect x="5.82" y="18.47" width="1.07" height="1.07" fill="#001c7e"/><rect x="7.05" y="19.68" width="1.07" height="1.07" fill="#001c7e"/><rect x="5.82" y="19.68" width="1.07" height="1.07" fill="#001c7e"/><rect x="8.31" y="20.88" width="1.07" height="1.07" fill="#001c7e"/><rect x="7.07" y="20.88" width="1.07" height="1.07" fill="#001c7e"/><rect x="5.82" y="20.88" width="1.07" height="1.07" fill="#001c7e"/><rect x="8.31" y="22.09" width="1.07" height="1.07" fill="#001c7e"/><rect x="10.63" y="24.18" width="1.07" height="1.07" fill="#001c7e"/><rect x="9.39" y="24.18" width="1.07" height="1.07" fill="#001c7e"/><rect x="8.14" y="24.18" width="1.07" height="1.07" fill="#001c7e"/><rect x="12.98" y="25.49" width="1.07" height="1.07" fill="#001c7e"/><rect x="11.74" y="25.49" width="1.07" height="1.07" fill="#001c7e"/><rect x="10.49" y="25.49" width="1.07" height="1.07" fill="#001c7e"/><rect x="12.99" y="26.79" width="1.07" height="1.07" fill="#001c7e"/><rect x="11.76" y="26.79" width="1.07" height="1.07" fill="#001c7e"/><rect x="16.76" y="7.53" width="1.07" height="1.07" fill="#001c7e"/><rect x="15.51" y="7.53" width="1.07" height="1.07" fill="#001c7e"/><rect x="14.26" y="7.53" width="1.07" height="1.07" fill="#001c7e"/><rect x="19.26" y="7.53" width="1.07" height="1.07" fill="#001c7e"/><rect x="18.01" y="7.53" width="1.07" height="1.07" fill="#001c7e"/><rect x="23.01" y="7.53" width="1.07" height="1.07" fill="#001c7e"/><rect x="21.76" y="7.53" width="1.07" height="1.07" fill="#001c7e"/><rect x="20.51" y="7.53" width="1.07" height="1.07" fill="#001c7e"/><rect x="25.51" y="7.53" width="1.07" height="1.07" fill="#001c7e"/><rect x="24.26" y="7.53" width="1.07" height="1.07" fill="#001c7e"/><rect x="29.26" y="7.53" width="1.07" height="1.07" fill="#001c7e"/><rect x="28.01" y="7.53" width="1.07" height="1.07" fill="#001c7e"/><rect x="26.76" y="7.53" width="1.07" height="1.07" fill="#001c7e"/><rect x="31.76" y="7.53" width="1.07" height="1.07" fill="#001c7e"/><rect x="30.51" y="7.53" width="1.07" height="1.07" fill="#001c7e"/><rect x="23.94" y="8.76" width="1.07" height="1.07" fill="#001c7e"/><rect x="22.7" y="8.76" width="1.07" height="1.07" fill="#001c7e"/><rect x="21.47" y="8.76" width="1.07" height="1.07" fill="#001c7e"/><rect x="26.42" y="8.76" width="1.07" height="1.07" fill="#001c7e"/><rect x="25.18" y="8.76" width="1.07" height="1.07" fill="#001c7e"/><rect x="30.13" y="8.76" width="1.07" height="1.07" fill="#001c7e"/><rect x="28.89" y="8.76" width="1.07" height="1.07" fill="#001c7e"/><rect x="27.65" y="8.76" width="1.07" height="1.07" fill="#001c7e"/><rect x="32.6" y="8.76" width="1.07" height="1.07" fill="#001c7e"/><rect x="31.37" y="8.76" width="1.07" height="1.07" fill="#001c7e"/><rect x="23.94" y="9.98" width="1.07" height="1.07" fill="#001c7e"/><rect x="22.7" y="9.98" width="1.07" height="1.07" fill="#001c7e"/><rect x="21.47" y="9.98" width="1.07" height="1.07" fill="#001c7e"/><rect x="26.42" y="9.98" width="1.07" height="1.07" fill="#001c7e"/><rect x="25.18" y="9.98" width="1.07" height="1.07" fill="#001c7e"/><rect x="30.13" y="9.98" width="1.07" height="1.07" fill="#001c7e"/><rect x="28.89" y="9.98" width="1.07" height="1.07" fill="#001c7e"/><rect x="27.65" y="9.98" width="1.07" height="1.07" fill="#001c7e"/><rect x="32.6" y="9.98" width="1.07" height="1.07" fill="#001c7e"/><rect x="31.37" y="9.98" width="1.07" height="1.07" fill="#001c7e"/><rect x="24.98" y="11.21" width="1.07" height="1.07" fill="#001c7e"/><rect x="23.75" y="11.21" width="1.07" height="1.07" fill="#001c7e"/><rect x="22.51" y="11.21" width="1.07" height="1.07" fill="#001c7e"/><rect x="27.46" y="11.21" width="1.07" height="1.07" fill="#001c7e"/><rect x="26.22" y="11.21" width="1.07" height="1.07" fill="#001c7e"/><rect x="29.93" y="11.21" width="1.07" height="1.07" fill="#001c7e"/><rect x="28.69" y="11.21" width="1.07" height="1.07" fill="#001c7e"/><rect x="22.55" y="12.44" width="1.07" height="1.07" fill="#001c7e"/><rect x="21.32" y="12.44" width="1.07" height="1.07" fill="#001c7e"/><rect x="20.08" y="12.44" width="1.07" height="1.07" fill="#001c7e"/><rect x="25.03" y="12.44" width="1.07" height="1.07" fill="#001c7e"/><rect x="23.79" y="12.44" width="1.07" height="1.07" fill="#001c7e"/><rect x="28.74" y="12.44" width="1.07" height="1.07" fill="#001c7e"/><rect x="27.5" y="12.44" width="1.07" height="1.07" fill="#001c7e"/><rect x="26.27" y="12.44" width="1.07" height="1.07" fill="#001c7e"/><rect x="22.77" y="13.66" width="1.07" height="1.07" fill="#001c7e"/><rect x="21.53" y="13.66" width="1.07" height="1.07" fill="#001c7e"/><rect x="25.24" y="13.66" width="1.07" height="1.07" fill="#001c7e"/><rect x="24" y="13.66" width="1.07" height="1.07" fill="#001c7e"/><rect x="28.95" y="13.66" width="1.07" height="1.07" fill="#001c7e"/><rect x="27.72" y="13.66" width="1.07" height="1.07" fill="#001c7e"/><rect x="26.48" y="13.66" width="1.07" height="1.07" fill="#001c7e"/><rect x="24.05" y="14.89" width="1.07" height="1.07" fill="#001c7e"/><rect x="22.81" y="14.89" width="1.07" height="1.07" fill="#001c7e"/><rect x="26.52" y="14.89" width="1.07" height="1.07" fill="#001c7e"/><rect x="25.29" y="14.89" width="1.07" height="1.07" fill="#001c7e"/><rect x="27.76" y="14.89" width="1.07" height="1.07" fill="#001c7e"/><rect x="24.05" y="16.12" width="1.07" height="1.07" fill="#001c7e"/><rect x="22.81" y="16.12" width="1.07" height="1.07" fill="#001c7e"/><rect x="26.52" y="16.12" width="1.07" height="1.07" fill="#001c7e"/><rect x="25.29" y="16.12" width="1.07" height="1.07" fill="#001c7e"/><rect x="30.23" y="16.12" width="1.07" height="1.07" fill="#001c7e"/><rect x="29" y="16.12" width="1.07" height="1.07" fill="#001c7e"/><rect x="27.76" y="16.12" width="1.07" height="1.07" fill="#001c7e"/><rect x="28.63" y="17.34" width="1.07" height="1.07" fill="#001c7e"/><rect x="27.39" y="17.34" width="1.07" height="1.07" fill="#001c7e"/><rect x="31.11" y="17.34" width="1.07" height="1.07" fill="#001c7e"/><rect x="29.87" y="17.34" width="1.07" height="1.07" fill="#001c7e"/><rect x="32.34" y="17.34" width="1.07" height="1.07" fill="#001c7e"/><rect x="28.63" y="18.57" width="1.07" height="1.07" fill="#001c7e"/><rect x="27.39" y="18.57" width="1.07" height="1.07" fill="#001c7e"/><rect x="31.11" y="18.57" width="1.07" height="1.07" fill="#001c7e"/><rect x="29.87" y="18.57" width="1.07" height="1.07" fill="#001c7e"/><rect x="32.34" y="18.57" width="1.07" height="1.07" fill="#001c7e"/><rect x="28.63" y="19.8" width="1.07" height="1.07" fill="#001c7e"/><rect x="27.39" y="19.8" width="1.07" height="1.07" fill="#001c7e"/><rect x="31.11" y="19.8" width="1.07" height="1.07" fill="#001c7e"/><rect x="29.87" y="19.8" width="1.07" height="1.07" fill="#001c7e"/><rect x="34.82" y="19.8" width="1.07" height="1.07" fill="#001c7e"/><rect x="33.58" y="19.8" width="1.07" height="1.07" fill="#001c7e"/><rect x="32.34" y="19.8" width="1.07" height="1.07" fill="#001c7e"/><rect x="29.87" y="21.02" width="1.07" height="1.07" fill="#001c7e"/><rect x="28.63" y="21.02" width="1.07" height="1.07" fill="#001c7e"/><rect x="27.39" y="21.02" width="1.07" height="1.07" fill="#001c7e"/><rect x="32.34" y="21.02" width="1.07" height="1.07" fill="#001c7e"/><rect x="31.11" y="21.02" width="1.07" height="1.07" fill="#001c7e"/><rect x="36.05" y="21.02" width="1.07" height="1.07" fill="#001c7e"/><rect x="34.82" y="21.02" width="1.07" height="1.07" fill="#001c7e"/><rect x="33.58" y="21.02" width="1.07" height="1.07" fill="#001c7e"/><rect x="29.87" y="22.25" width="1.07" height="1.07" fill="#001c7e"/><rect x="28.63" y="22.25" width="1.07" height="1.07" fill="#001c7e"/><rect x="27.39" y="22.25" width="1.07" height="1.07" fill="#001c7e"/><rect x="32.34" y="22.25" width="1.07" height="1.07" fill="#001c7e"/><rect x="31.11" y="22.25" width="1.07" height="1.07" fill="#001c7e"/><rect x="36.05" y="22.25" width="1.07" height="1.07" fill="#001c7e"/><rect x="34.82" y="22.25" width="1.07" height="1.07" fill="#001c7e"/><rect x="33.58" y="22.25" width="1.07" height="1.07" fill="#001c7e"/><rect x="30.99" y="23.48" width="1.07" height="1.07" fill="#001c7e"/><rect x="29.75" y="23.48" width="1.07" height="1.07" fill="#001c7e"/><rect x="28.52" y="23.48" width="1.07" height="1.07" fill="#001c7e"/><rect x="33.46" y="23.48" width="1.07" height="1.07" fill="#001c7e"/><rect x="32.23" y="23.48" width="1.07" height="1.07" fill="#001c7e"/><rect x="35.94" y="23.48" width="1.07" height="1.07" fill="#001c7e"/><rect x="34.7" y="23.48" width="1.07" height="1.07" fill="#001c7e"/><rect x="30.99" y="24.7" width="1.07" height="1.07" fill="#001c7e"/><rect x="29.75" y="24.7" width="1.07" height="1.07" fill="#001c7e"/><rect x="28.52" y="24.7" width="1.07" height="1.07" fill="#001c7e"/><rect x="33.46" y="24.7" width="1.07" height="1.07" fill="#001c7e"/><rect x="32.23" y="24.7" width="1.07" height="1.07" fill="#001c7e"/><rect x="35.94" y="24.7" width="1.07" height="1.07" fill="#001c7e"/><rect x="34.7" y="24.7" width="1.07" height="1.07" fill="#001c7e"/><rect x="32.22" y="25.93" width="1.07" height="1.07" fill="#001c7e"/><rect x="30.98" y="25.93" width="1.07" height="1.07" fill="#001c7e"/><rect x="29.74" y="25.93" width="1.07" height="1.07" fill="#001c7e"/><rect x="34.69" y="25.93" width="1.07" height="1.07" fill="#001c7e"/><rect x="33.45" y="25.93" width="1.07" height="1.07" fill="#001c7e"/><rect x="32.22" y="27.16" width="1.07" height="1.07" fill="#001c7e"/><rect x="30.98" y="27.16" width="1.07" height="1.07" fill="#001c7e"/><rect x="29.74" y="27.16" width="1.07" height="1.07" fill="#001c7e"/><rect x="30.98" y="28.38" width="1.07" height="1.07" fill="#001c7e"/><rect x="29.74" y="28.38" width="1.07" height="1.07" fill="#001c7e"/><rect x="30.98" y="29.61" width="1.07" height="1.07" fill="#001c7e"/><rect x="29.74" y="29.61" width="1.07" height="1.07" fill="#001c7e"/><rect x="29.74" y="30.84" width="1.07" height="1.07" fill="#001c7e"/><rect x="14.47" y="6.3" width="1.07" height="1.07" fill="#001c7e"/><rect x="13.23" y="6.3" width="1.07" height="1.07" fill="#001c7e"/><rect x="11.99" y="6.3" width="1.07" height="1.07" fill="#001c7e"/><rect x="16.94" y="6.3" width="1.07" height="1.07" fill="#001c7e"/><rect x="15.7" y="6.3" width="1.07" height="1.07" fill="#001c7e"/><rect x="20.65" y="6.3" width="1.07" height="1.07" fill="#001c7e"/><rect x="19.41" y="6.3" width="1.07" height="1.07" fill="#001c7e"/><rect x="18.18" y="6.3" width="1.07" height="1.07" fill="#001c7e"/><rect x="23.13" y="6.3" width="1.07" height="1.07" fill="#001c7e"/><rect x="21.89" y="6.3" width="1.07" height="1.07" fill="#001c7e"/><rect x="26.84" y="6.3" width="1.07" height="1.07" fill="#001c7e"/><rect x="25.6" y="6.3" width="1.07" height="1.07" fill="#001c7e"/><rect x="24.36" y="6.3" width="1.07" height="1.07" fill="#001c7e"/><rect x="32.23" y="6.3" width="1.07" height="1.07" fill="#001c7e"/><rect x="30.99" y="6.3" width="1.07" height="1.07" fill="#001c7e"/><rect x="35.86" y="6.3" width="1.07" height="1.07" fill="#001c7e"/><rect x="34.62" y="6.3" width="1.07" height="1.07" fill="#001c7e"/><rect x="16.52" y="5.08" width="1.07" height="1.07" fill="#001c7e"/><rect x="15.28" y="5.08" width="1.07" height="1.07" fill="#001c7e"/><rect x="14.05" y="5.08" width="1.07" height="1.07" fill="#001c7e"/><rect x="19" y="5.08" width="1.07" height="1.07" fill="#001c7e"/><rect x="17.76" y="5.08" width="1.07" height="1.07" fill="#001c7e"/><rect x="32.19" y="5.08" width="1.07" height="1.07" fill="#001c7e"/><rect x="30.95" y="5.08" width="1.07" height="1.07" fill="#001c7e"/><rect x="29.72" y="5.08" width="1.07" height="1.07" fill="#001c7e"/><rect x="34.67" y="5.08" width="1.07" height="1.07" fill="#001c7e"/><rect x="33.43" y="5.08" width="1.07" height="1.07" fill="#001c7e"/><rect x="38.38" y="5.08" width="1.07" height="1.07" fill="#001c7e"/><rect x="37.14" y="5.08" width="1.07" height="1.07" fill="#001c7e"/><rect x="35.9" y="5.08" width="1.07" height="1.07" fill="#001c7e"/><rect x="39.61" y="5.08" width="1.07" height="1.07" fill="#001c7e"/><rect x="34.69" y="3.85" width="1.07" height="1.07" fill="#001c7e"/><rect x="33.45" y="3.85" width="1.07" height="1.07" fill="#001c7e"/><rect x="38.4" y="3.85" width="1.07" height="1.07" fill="#001c7e"/><rect x="37.17" y="3.85" width="1.07" height="1.07" fill="#001c7e"/><rect x="35.93" y="3.85" width="1.07" height="1.07" fill="#001c7e"/><rect x="39.64" y="3.85" width="1.07" height="1.07" fill="#001c7e"/><rect x="45.5" y="6.22" width="1.07" height="1.07" fill="#001c7e"/><rect x="44.27" y="6.22" width="1.07" height="1.07" fill="#001c7e"/><rect x="46.74" y="6.22" width="1.07" height="1.07" fill="#001c7e"/><rect x="43.03" y="7.46" width="1.07" height="1.07" fill="#001c7e"/><rect x="41.79" y="7.46" width="1.07" height="1.07" fill="#001c7e"/><rect x="40.55" y="7.46" width="1.07" height="1.07" fill="#001c7e"/><rect x="45.5" y="7.46" width="1.07" height="1.07" fill="#001c7e"/><rect x="44.27" y="7.46" width="1.07" height="1.07" fill="#001c7e"/><rect x="47.98" y="7.46" width="1.07" height="1.07" fill="#001c7e"/><rect x="46.74" y="7.46" width="1.07" height="1.07" fill="#001c7e"/><rect x="43.03" y="8.7" width="1.07" height="1.07" fill="#001c7e"/><rect x="41.79" y="8.7" width="1.07" height="1.07" fill="#001c7e"/><rect x="40.55" y="8.7" width="1.07" height="1.07" fill="#001c7e"/><rect x="45.5" y="8.7" width="1.07" height="1.07" fill="#001c7e"/><rect x="44.27" y="8.7" width="1.07" height="1.07" fill="#001c7e"/><rect x="49.21" y="8.7" width="1.07" height="1.07" fill="#001c7e"/><rect x="47.98" y="8.7" width="1.07" height="1.07" fill="#001c7e"/><rect x="46.74" y="8.7" width="1.07" height="1.07" fill="#001c7e"/><rect x="43.03" y="9.94" width="1.07" height="1.07" fill="#001c7e"/><rect x="41.79" y="9.94" width="1.07" height="1.07" fill="#001c7e"/><rect x="40.55" y="9.94" width="1.07" height="1.07" fill="#001c7e"/><rect x="45.5" y="9.94" width="1.07" height="1.07" fill="#001c7e"/><rect x="44.27" y="9.94" width="1.07" height="1.07" fill="#001c7e"/><rect x="49.21" y="9.94" width="1.07" height="1.07" fill="#001c7e"/><rect x="47.98" y="9.94" width="1.07" height="1.07" fill="#001c7e"/><rect x="46.74" y="9.94" width="1.07" height="1.07" fill="#001c7e"/><rect x="50.45" y="9.94" width="1.07" height="1.07" fill="#001c7e"/><rect x="43.04" y="11.21" width="1.07" height="1.07" fill="#001c7e"/><rect x="41.8" y="11.21" width="1.07" height="1.07" fill="#001c7e"/><rect x="40.55" y="11.21" width="1.07" height="1.07" fill="#001c7e"/><rect x="45.52" y="11.21" width="1.07" height="1.07" fill="#001c7e"/><rect x="44.28" y="11.21" width="1.07" height="1.07" fill="#001c7e"/><rect x="49.25" y="11.21" width="1.07" height="1.07" fill="#001c7e"/><rect x="48.01" y="11.21" width="1.07" height="1.07" fill="#001c7e"/><rect x="46.76" y="11.21" width="1.07" height="1.07" fill="#001c7e"/><rect x="50.49" y="11.21" width="1.07" height="1.07" fill="#001c7e"/><rect x="51.73" y="11.18" width="1.07" height="1.07" fill="#001c7e"/><rect x="43.04" y="12.45" width="1.07" height="1.07" fill="#001c7e"/><rect x="41.8" y="12.45" width="1.07" height="1.07" fill="#001c7e"/><rect x="40.55" y="12.45" width="1.07" height="1.07" fill="#001c7e"/><rect x="45.52" y="12.45" width="1.07" height="1.07" fill="#001c7e"/><rect x="44.28" y="12.45" width="1.07" height="1.07" fill="#001c7e"/><rect x="49.25" y="12.45" width="1.07" height="1.07" fill="#001c7e"/><rect x="48.01" y="12.45" width="1.07" height="1.07" fill="#001c7e"/><rect x="46.76" y="12.45" width="1.07" height="1.07" fill="#001c7e"/><rect x="50.49" y="12.45" width="1.07" height="1.07" fill="#001c7e"/><rect x="43.04" y="13.71" width="1.07" height="1.07" fill="#001c7e"/><rect x="41.8" y="13.71" width="1.07" height="1.07" fill="#001c7e"/><rect x="40.55" y="13.71" width="1.07" height="1.07" fill="#001c7e"/><rect x="45.52" y="13.71" width="1.07" height="1.07" fill="#001c7e"/><rect x="44.28" y="13.71" width="1.07" height="1.07" fill="#001c7e"/><rect x="49.25" y="13.71" width="1.07" height="1.07" fill="#001c7e"/><rect x="48.01" y="13.71" width="1.07" height="1.07" fill="#001c7e"/><rect x="46.76" y="13.71" width="1.07" height="1.07" fill="#001c7e"/><rect x="50.49" y="13.71" width="1.07" height="1.07" fill="#001c7e"/><rect x="51.73" y="13.69" width="1.07" height="1.07" fill="#001c7e"/><rect x="42.11" y="14.98" width="1.07" height="1.07" fill="#001c7e"/><rect x="40.87" y="14.98" width="1.07" height="1.07" fill="#001c7e"/><rect x="39.62" y="14.98" width="1.07" height="1.07" fill="#001c7e"/><rect x="44.6" y="14.98" width="1.07" height="1.07" fill="#001c7e"/><rect x="43.36" y="14.98" width="1.07" height="1.07" fill="#001c7e"/><rect x="48.34" y="14.98" width="1.07" height="1.07" fill="#001c7e"/><rect x="47.1" y="14.98" width="1.07" height="1.07" fill="#001c7e"/><rect x="45.85" y="14.98" width="1.07" height="1.07" fill="#001c7e"/><rect x="49.59" y="14.98" width="1.07" height="1.07" fill="#001c7e"/><rect x="50.83" y="14.95" width="1.07" height="1.07" fill="#001c7e"/><rect x="52.08" y="14.98" width="1.07" height="1.07" fill="#001c7e"/><rect x="42.11" y="16.24" width="1.07" height="1.07" fill="#001c7e"/><rect x="40.87" y="16.24" width="1.07" height="1.07" fill="#001c7e"/><rect x="39.62" y="16.24" width="1.07" height="1.07" fill="#001c7e"/><rect x="44.6" y="16.24" width="1.07" height="1.07" fill="#001c7e"/><rect x="43.36" y="16.24" width="1.07" height="1.07" fill="#001c7e"/><rect x="48.34" y="16.24" width="1.07" height="1.07" fill="#001c7e"/><rect x="47.1" y="16.24" width="1.07" height="1.07" fill="#001c7e"/><rect x="45.85" y="16.24" width="1.07" height="1.07" fill="#001c7e"/><rect x="49.59" y="16.24" width="1.07" height="1.07" fill="#001c7e"/><rect x="50.83" y="16.22" width="1.07" height="1.07" fill="#001c7e"/><rect x="52.08" y="16.24" width="1.07" height="1.07" fill="#001c7e"/><rect x="43.37" y="17.51" width="1.07" height="1.07" fill="#001c7e"/><rect x="42.12" y="17.51" width="1.07" height="1.07" fill="#001c7e"/><rect x="40.87" y="17.51" width="1.07" height="1.07" fill="#001c7e"/><rect x="45.86" y="17.51" width="1.07" height="1.07" fill="#001c7e"/><rect x="44.61" y="17.51" width="1.07" height="1.07" fill="#001c7e"/><rect x="49.6" y="17.51" width="1.07" height="1.07" fill="#001c7e"/><rect x="48.35" y="17.51" width="1.07" height="1.07" fill="#001c7e"/><rect x="47.1" y="17.51" width="1.07" height="1.07" fill="#001c7e"/><rect x="50.84" y="17.51" width="1.07" height="1.07" fill="#001c7e"/><rect x="52.09" y="17.48" width="1.07" height="1.07" fill="#001c7e"/><rect x="44.62" y="18.75" width="1.07" height="1.07" fill="#001c7e"/><rect x="43.38" y="18.75" width="1.07" height="1.07" fill="#001c7e"/><rect x="42.13" y="18.75" width="1.07" height="1.07" fill="#001c7e"/><rect x="47.11" y="18.75" width="1.07" height="1.07" fill="#001c7e"/><rect x="45.87" y="18.75" width="1.07" height="1.07" fill="#001c7e"/><rect x="50.85" y="18.75" width="1.07" height="1.07" fill="#001c7e"/><rect x="49.61" y="18.75" width="1.07" height="1.07" fill="#001c7e"/><rect x="48.36" y="18.75" width="1.07" height="1.07" fill="#001c7e"/><rect x="52.1" y="18.75" width="1.07" height="1.07" fill="#001c7e"/><rect x="46.84" y="19.99" width="1.07" height="1.07" fill="#001c7e"/><rect x="45.59" y="19.99" width="1.07" height="1.07" fill="#001c7e"/><rect x="44.35" y="19.99" width="1.07" height="1.07" fill="#001c7e"/><rect x="49.33" y="19.99" width="1.07" height="1.07" fill="#001c7e"/><rect x="48.08" y="19.99" width="1.07" height="1.07" fill="#001c7e"/><rect x="51.82" y="19.99" width="1.07" height="1.07" fill="#001c7e"/><rect x="50.58" y="19.99" width="1.07" height="1.07" fill="#001c7e"/><rect x="46.84" y="21.23" width="1.07" height="1.07" fill="#001c7e"/><rect x="45.59" y="21.23" width="1.07" height="1.07" fill="#001c7e"/><rect x="44.35" y="21.23" width="1.07" height="1.07" fill="#001c7e"/><rect x="49.33" y="21.23" width="1.07" height="1.07" fill="#001c7e"/><rect x="48.08" y="21.23" width="1.07" height="1.07" fill="#001c7e"/><rect x="51.82" y="21.23" width="1.07" height="1.07" fill="#001c7e"/><rect x="50.58" y="21.23" width="1.07" height="1.07" fill="#001c7e"/><rect x="46.84" y="22.46" width="1.07" height="1.07" fill="#001c7e"/><rect x="45.59" y="22.46" width="1.07" height="1.07" fill="#001c7e"/><rect x="44.35" y="22.46" width="1.07" height="1.07" fill="#001c7e"/><rect x="49.33" y="22.46" width="1.07" height="1.07" fill="#001c7e"/><rect x="48.08" y="22.46" width="1.07" height="1.07" fill="#001c7e"/><rect x="50.58" y="22.46" width="1.07" height="1.07" fill="#001c7e"/><rect x="46.84" y="23.7" width="1.07" height="1.07" fill="#001c7e"/><rect x="45.59" y="23.7" width="1.07" height="1.07" fill="#001c7e"/><rect x="44.35" y="23.7" width="1.07" height="1.07" fill="#001c7e"/><rect x="49.33" y="23.7" width="1.07" height="1.07" fill="#001c7e"/><rect x="48.08" y="23.7" width="1.07" height="1.07" fill="#001c7e"/><rect x="47.85" y="24.94" width="1.07" height="1.07" fill="#001c7e"/><rect x="46.61" y="24.94" width="1.07" height="1.07" fill="#001c7e"/><rect x="45.36" y="24.94" width="1.07" height="1.07" fill="#001c7e"/><rect x="46.61" y="26.18" width="1.07" height="1.07" fill="#001c7e"/><rect x="45.36" y="26.18" width="1.07" height="1.07" fill="#001c7e"/><rect x="45.36" y="27.42" width="1.07" height="1.07" fill="#001c7e"/></svg>