<svg id="Capa_1" data-name="Capa 1" xmlns="http://www.w3.org/2000/svg" xmlns:xlink="http://www.w3.org/1999/xlink" width="169.05mm" height="82.12mm" viewBox="0 0 479.19 232.77"><defs><style>.cls-1{fill:#fff;}.cls-2{fill:#c4d5f5;}.cls-3{fill:none;}.cls-3,.cls-4{stroke:#83a2de;stroke-miterlimit:10;}.cls-4{fill:#c6d1e6;}.cls-5{fill:url(#Degradado_sin_nombre_7);}</style><linearGradient id="Degradado_sin_nombre_7" x1="228.08" y1="301.73" x2="241.6" y2="348.19" gradientUnits="userSpaceOnUse"><stop offset="0" stop-color="#c4d5f5"/><stop offset="1" stop-color="#fff"/></linearGradient></defs><title>img-vaso</title><path class="cls-1" d="M240.33,279.76a49.28,49.28,0,0,0-6.34.41v-.9l-56.73,10-14.67,2.93L156,295.9,92.89,306.17,66.48,342.12l3.67,44.75,22,22L234,442.63v-.31a49.28,49.28,0,0,0,6.34.41c34.83,0,63.06-36.48,63.06-81.48S275.16,279.76,240.33,279.76Z" transform="translate(-66.36 -278.84)"/><path class="cls-2" d="M72,361.26s70.33,19.91,105.54-14.57c-5.91,65.9,34.08,87.58,34.08,87.58L94,406.74,74.21,386.2Z" transform="translate(-66.36 -278.84)"/><ellipse class="cls-3" cx="174.36" cy="82.46" rx="63.07" ry="81.48"/><ellipse class="cls-3" cx="173.82" cy="82.33" rx="59.15" ry="76.43"/><polyline class="cls-3" points="168.02 163.84 26.19 130.1 4.18 108.09 0.51 63.34 26.92 27.39 90.02 17.12 96.62 13.45 111.29 10.52 168.02 0.49"/><path class="cls-3" d="M156.13,299.39c-36.2,26.41-28.86,108.08,7.82,124.22l-63.09-18.09L83.25,384l-3.42-45,21-29.34Z" transform="translate(-66.36 -278.84)"/><path class="cls-3" d="M218.73,284.23,166.4,294.5c-44,32.76-32.19,114,4.4,130.09l42.55,10.76" transform="translate(-66.36 -278.84)"/><path class="cls-4" d="M182.05,430c-10,1.89-15.65.49-27.34.12-6.41,5.26,17.38,10.42,26.73,14.29-7.22,1.73-5.33,4.16-7.22,5.15,6.82,5,13.37,2.27,18.08,4.15-11.23,5.87-38.13,8.57-35.13,14.36,10.2,5.95,27.78,5.37,41.9,5.76-3.47,1.32-.09,6.72,3.55,7.42s8.62,1,9.25,4.69c-9.3,6.48-36.57,6.81-28.36,14,3.92,3.42,6.85,5.87,14.19,5.38l129.35-23c20.74-3.38,41.64-6.77,62.63-5.93a157.3,157.3,0,0,1,81,26.49c7.05,4.75,15.29,10.35,23.32,7.56,3.17-1.1,5.81-3.43,9-4.5,5.57-1.88,11.55.37,17.31,1.48s13,.36,15.6-4.91c-4.08-3.37-8.29-7-10.27-11.89s-.87-11.49,3.8-14c4.86-2.59,12.47-.6,15-5.41a6.17,6.17,0,0,0-1.25-7.1c-3-3.15-7.35-3.52-11.44-3.82-39.85-2.89-123.53-2.15-120.23-8.38,2.75-9,52.23-1.54,40.53-9.66-4.3-3-17.64-3.56-22.36-7-12.09-8.91,53.69,5.8,84.53,1.65l10.64-1.47c4.95-.92,10.42-1.71,9-2.93-8.81-7.52-48.17-1.69-70.67-6.91-9-2.1-18-4.67-27.24-5.71a158.33,158.33,0,0,0-19.24-.64c-27.38.23-55,1-81.93-3.72-14.33-2.52-35.23-6.1-48,.84,0,0-20,31.54-51.84,26.9C219.59,440.94,182.05,430,182.05,430Z" transform="translate(-66.36 -278.84)"/><path class="cls-5" d="M211.34,296a48.72,48.72,0,0,1,40.55-7.21A52.05,52.05,0,0,1,285,315.63c4.4,8.83,7.83,16.81,9.38,26.55a15.8,15.8,0,0,1-.28,4.51c-.68,1.59-5,.32-6.48-.56a17.59,17.59,0,0,1-3.25-2.44c-5.84-5.13-15.53-1.21-22.4-4.86-2.87-1.52-4.94-4.21-7.67-6s-6.9-2.21-8.82.4c2.43,13.71-3.55,10.26-3.48,12-9.57-1.13-12.81-1.76-21.07.73a58.41,58.41,0,0,1-12.14,2.73c-6.55.51-13-1.2-19.39-2.9a7.88,7.88,0,0,1-3.45-1.56c-1.37-1.27-1.65-3.32-1.53-5.18.31-4.57,2.53-8.78,4.79-12.77q6.13-10.87,13.1-21.24A31.08,31.08,0,0,1,211.34,296Z" transform="translate(-66.36 -278.84)"/></svg>